<?xml version="1.0" standalone="no"?>
<!DOCTYPE svg PUBLIC "-//W3C//DTD SVG 20010904//EN"
 "http://www.w3.org/TR/2001/REC-SVG-20010904/DTD/svg10.dtd">
<svg version="1.0" xmlns="http://www.w3.org/2000/svg"
 width="280.000000pt" height="280.000000pt" viewBox="0 0 280.000000 280.000000"
 preserveAspectRatio="xMidYMid meet">
<metadata>
Created by potrace 1.14, written by Peter Selinger 2001-2017
</metadata>
<g transform="translate(0.000000,280.000000) scale(0.100000,-0.100000)"
fill="#000000" stroke="none">
<path d="M1640 2650 c-9 -18 -4 -30 12 -30 5 0 6 5 3 11 -4 6 1 16 10 23 16
12 16 13 1 13 -9 0 -21 -8 -26 -17z"/>
<path d="M1679 2651 c-8 -9 -13 -19 -12 -23 6 -16 -38 -27 -126 -30 -88 -3
-94 -5 -97 -25 -2 -12 0 -24 5 -27 4 -3 7 6 5 19 -3 28 2 30 31 12 22 -13 26
-30 11 -44 -5 -5 -6 -3 -2 5 4 7 1 12 -9 12 -9 0 -14 -4 -11 -8 3 -5 -12 -9
-32 -9 -67 -2 -72 -3 -72 -19 0 -8 -4 -12 -10 -9 -5 3 -10 1 -10 -4 0 -6 5
-11 10 -11 6 0 10 -4 10 -8 0 -5 -16 -9 -35 -10 -43 -2 -58 -9 -48 -25 3 -7
-3 -4 -15 7 -18 16 -22 16 -27 4 -3 -8 -5 -19 -4 -24 5 -27 -4 -34 -41 -34
-36 0 -40 -2 -32 -17 13 -25 1 -49 -25 -50 -13 0 -28 -1 -33 -2 -6 0 -8 -12
-6 -24 2 -13 0 -30 -5 -38 -5 -8 -9 -9 -9 -3 0 7 -11 9 -25 6 -21 -4 -25 -10
-25 -38 0 -25 -5 -34 -17 -35 -10 -1 -25 -2 -33 -3 -10 -1 -15 -11 -15 -30 0
-30 -26 -49 -52 -39 -17 7 -17 -29 0 -46 10 -10 9 -11 -5 -6 -14 5 -16 2 -13
-15 3 -17 0 -21 -13 -16 -13 5 -12 2 3 -9 17 -14 18 -17 5 -25 -8 -5 -25 -10
-37 -10 -20 0 -23 -5 -23 -39 0 -47 -8 -71 -23 -71 -7 0 -7 4 1 12 17 17 15
28 -4 28 -9 0 -12 -5 -8 -12 6 -10 4 -10 -7 0 -18 16 -29 15 -29 -4 0 -8 5
-12 11 -9 6 4 5 -3 -3 -14 -10 -17 -21 -21 -53 -19 -30 2 -39 7 -37 19 1 9 -5
16 -13 16 -11 0 -14 -7 -9 -21 4 -15 3 -17 -4 -7 -8 11 -10 11 -15 0 -2 -8 -4
-2 -3 13 0 14 4 24 9 21 4 -2 7 1 7 6 0 7 -32 11 -86 11 -62 0 -83 3 -78 12 5
7 3 8 -7 2 -19 -11 -91 -13 -105 -2 -8 6 -11 -12 -10 -65 1 -72 2 -74 26 -75
109 -1 124 -3 110 -12 -13 -8 -12 -10 3 -10 19 0 23 -15 5 -26 -7 -4 -8 -3 -4
4 4 7 2 12 -3 12 -19 0 -12 -19 10 -31 15 -8 19 -8 15 0 -4 6 -2 11 3 11 6 0
11 -4 11 -8 0 -9 1 -9 77 -13 29 -1 50 -6 47 -10 -3 -5 0 -9 5 -9 6 0 11 5 11
10 0 6 5 10 10 10 7 0 7 -6 0 -19 -13 -26 -13 -34 3 -25 8 5 8 2 -2 -9 -7 -9
-9 -17 -4 -17 13 0 9 -48 -5 -62 -8 -8 -12 -9 -12 -1 0 6 -8 9 -19 6 -19 -5
-24 -52 -24 -231 0 -23 0 -41 -1 -40 -1 2 -8 12 -16 22 -10 13 -10 17 -3 12 7
-4 13 -3 13 3 0 14 -14 21 -25 13 -12 -9 -19 -43 -8 -40 4 2 9 0 11 -4 5 -17
1 -20 -12 -9 -11 9 -16 9 -21 0 -4 -6 -2 -15 5 -19 9 -6 9 -9 0 -15 -9 -6 -9
-10 1 -16 8 -5 9 -9 4 -9 -6 0 -11 -31 -11 -75 -1 -51 3 -72 10 -68 6 3 5 0
-1 -8 -16 -16 -17 -33 -1 -23 7 5 8 3 2 -7 -12 -20 -14 -38 -3 -45 6 -3 5 -11
-2 -20 -8 -10 -8 -14 0 -15 6 -1 17 -2 24 -3 6 -1 17 1 23 6 8 5 12 -14 14
-65 2 -39 4 -82 4 -94 1 -12 5 -21 10 -20 5 1 11 -4 14 -12 2 -8 0 -11 -6 -7
-6 3 -13 3 -16 -2 -3 -5 9 -8 27 -8 30 1 32 -1 32 -34 0 -21 5 -36 13 -36 6
-1 22 -2 35 -3 18 -1 22 -7 22 -33 0 -31 2 -33 36 -31 36 1 37 0 34 -31 l-4
-32 67 -3 c37 -2 74 -3 82 -3 8 -1 21 -6 29 -12 9 -7 12 -7 9 0 -8 12 170 13
191 0 10 -6 12 -5 7 2 -5 9 7 12 41 13 109 2 108 2 108 31 1 15 4 30 8 34 4 4
7 2 7 -5 0 -7 4 -10 9 -6 6 3 15 -3 21 -12 10 -16 11 -15 7 5 -3 12 -1 20 4
17 4 -3 7 -19 6 -34 -1 -16 -4 -28 -6 -26 -2 2 -10 -2 -18 -10 -8 -8 -19 -15
-26 -15 -6 0 -2 7 9 15 10 8 14 15 8 15 -6 0 -17 -7 -25 -16 -10 -13 -10 -17
1 -24 7 -4 19 -6 27 -3 7 3 13 0 13 -5 0 -6 -9 -9 -20 -7 -11 2 -22 0 -25 -6
-4 -5 0 -9 7 -9 8 0 9 -3 3 -8 -13 -9 -17 -130 -5 -137 6 -4 10 -12 10 -18 0
-7 -4 -6 -10 3 -6 10 -8 0 -7 -32 1 -25 5 -44 10 -41 11 7 8 -12 -3 -23 -8 -8
-3 -11 14 -10 14 1 29 5 33 10 4 4 2 6 -6 4 -7 -2 -16 4 -18 12 -4 12 -3 12 5
1 7 -9 12 -10 16 -2 4 6 2 11 -3 11 -15 0 -14 27 1 36 7 4 8 3 4 -4 -4 -7 -4
-12 1 -12 4 0 9 -28 11 -62 1 -34 4 -64 7 -66 3 -3 17 -5 32 -6 20 -1 28 -6
29 -21 1 -11 2 -26 3 -32 1 -7 10 -13 22 -13 11 0 18 4 14 10 -3 5 7 3 21 -5
15 -8 31 -12 36 -9 11 7 39 -16 33 -26 -3 -5 -1 -11 4 -14 10 -7 9 13 -2 30
-4 7 1 18 10 25 10 8 14 9 10 2 -4 -6 -3 -14 3 -18 5 -3 10 -1 10 5 0 6 8 9
18 6 16 -5 18 1 17 59 0 44 -4 64 -11 61 -6 -2 -17 1 -23 7 -6 6 -11 7 -11 1
0 -6 5 -15 12 -22 9 -9 9 -12 0 -12 -7 0 -12 6 -12 13 0 9 -2 9 -9 -1 -4 -8
-7 8 -6 38 2 57 17 82 38 61 10 -10 8 -11 -8 -6 -15 5 -16 4 -6 -3 9 -7 10
-12 2 -16 -6 -4 -9 -12 -5 -17 3 -5 11 -6 17 -2 7 4 5 -2 -3 -12 -12 -15 -12
-17 -1 -10 10 6 12 4 6 -5 -6 -9 -4 -11 4 -6 7 5 10 10 7 13 -3 3 -1 14 5 24
8 15 6 17 -8 12 -16 -6 -16 -4 1 15 13 15 15 22 6 22 -8 0 -9 4 -3 12 11 16
11 48 -1 67 -5 7 -5 16 1 20 5 3 9 35 9 70 -1 68 11 92 42 86 13 -2 18 4 20
21 1 13 -3 24 -8 24 -6 0 -9 -6 -8 -13 2 -6 -3 -11 -9 -9 -7 1 -13 -2 -13 -8
0 -5 -4 -10 -9 -10 -4 0 -8 12 -7 28 1 23 5 27 29 25 26 -2 27 0 27 42 0 29 4
45 13 45 7 0 8 3 2 8 -5 4 -11 15 -13 24 -2 13 5 16 30 15 l33 -2 0 135 0 135
-32 -1 c-31 -1 -33 2 -33 33 0 30 -3 33 -29 33 -16 0 -32 -6 -34 -12 -4 -8 -6
-7 -6 3 -1 14 -7 16 -33 10 -18 -4 -45 -7 -61 -6 -15 1 -25 0 -22 -3 3 -3 -1
-12 -8 -20 -8 -11 -8 -14 0 -9 6 4 14 1 16 -5 4 -10 6 -10 6 0 1 7 6 10 11 7
16 -10 11 -23 -7 -20 -10 1 -24 -2 -30 -8 -7 -5 -13 -6 -13 -3 0 4 -10 2 -21
-5 -15 -8 -19 -8 -15 0 4 6 2 11 -3 11 -6 0 -12 -11 -12 -25 -2 -40 -3 -43
-18 -57 -8 -7 -11 -8 -8 -2 4 7 -2 11 -16 10 -12 0 -23 -8 -23 -16 -1 -8 -2
-24 -3 -35 -1 -16 -8 -20 -33 -20 -30 0 -33 -3 -32 -28 1 -15 -3 -28 -7 -28
-5 -1 -18 -3 -29 -4 -11 -1 -24 -3 -29 -4 -5 0 -8 -13 -6 -27 1 -14 -3 -27 -9
-29 -6 -3 -56 -6 -111 -8 -73 -2 -99 -7 -97 -16 1 -7 -2 -10 -8 -6 -6 3 -8 11
-5 16 4 5 -18 9 -49 9 l-56 0 0 34 c0 32 -2 34 -29 31 -35 -5 -37 1 -36 102 0
48 -4 74 -12 77 -7 3 -10 -1 -6 -10 3 -7 0 -14 -6 -14 -7 0 -14 7 -18 16 -4
10 -8 12 -12 5 -4 -6 -7 26 -6 71 1 68 4 82 18 84 23 3 31 -14 16 -32 -7 -9
-14 -23 -15 -31 -2 -12 0 -12 14 -1 9 7 6 1 -6 -14 l-24 -26 22 -7 c20 -6 20
-8 4 -20 -16 -11 -15 -12 9 -12 23 -1 25 2 16 18 -5 11 -14 19 -19 19 -6 0
-10 4 -10 10 0 5 3 9 7 7 5 -1 8 0 9 3 0 3 6 15 13 27 10 20 9 22 -6 16 -16
-6 -16 -4 1 15 13 15 15 22 6 22 -9 0 -10 3 -1 13 8 10 7 17 -2 27 -6 7 -7 10
-1 7 6 -3 11 0 11 8 0 8 -5 11 -11 8 -6 -4 -5 0 1 8 10 12 10 18 0 29 -7 8 -8
10 -1 7 8 -4 12 3 11 21 0 62 7 102 17 92 6 -6 19 -10 30 -9 20 0 20 1 -1 9
-28 12 -30 24 -3 15 18 -6 20 -1 22 52 2 76 2 80 10 88 4 4 4 13 1 21 -3 8 1
14 8 14 7 0 9 -3 6 -7 -4 -3 -1 -13 6 -21 10 -13 9 -14 -2 -7 -10 6 -12 4 -6
-5 6 -9 4 -11 -5 -5 -9 5 -11 4 -6 -4 4 -6 11 -9 16 -6 4 3 11 -1 13 -7 4 -10
6 -10 6 0 1 7 5 11 10 8 5 -4 8 2 6 11 -1 10 -8 17 -14 16 -6 -2 -11 4 -11 12
0 8 6 12 14 9 11 -4 16 4 18 32 l3 38 223 2 c123 1 229 5 237 8 8 3 12 12 9
21 -3 8 -11 12 -18 8 -6 -4 -5 1 3 10 16 20 36 23 25 5 -6 -10 -5 -10 7 -1 9
7 52 14 97 15 l82 3 0 32 c0 23 5 33 16 33 9 0 12 -5 8 -12 -5 -7 -3 -8 7 -2
17 11 20 11 64 13 29 1 35 5 35 24 0 28 19 57 27 40 3 -10 11 -10 32 1 17 9
33 11 41 6 20 -13 30 -3 30 31 0 27 3 29 35 29 24 0 35 5 35 14 0 10 8 13 21
11 12 -3 18 -1 15 3 -4 4 -13 7 -19 7 -7 0 -13 9 -16 20 -3 17 -2 18 15 5 12
-11 15 -11 10 -2 -5 9 -3 13 5 11 36 -4 47 1 41 23 -3 14 -2 19 6 14 7 -4 12
-2 12 3 0 6 -5 11 -12 11 -15 0 -1 13 17 16 8 1 13 -1 10 -6 -3 -4 2 -10 10
-13 9 -4 12 -1 8 9 -3 9 1 14 13 14 11 0 15 4 9 8 -5 4 -10 16 -10 27 0 16 7
20 33 20 31 0 32 2 33 40 1 22 1 46 0 53 -1 8 4 21 11 30 10 12 10 14 1 8 -7
-4 -13 -2 -13 3 0 15 43 7 48 -9 3 -8 0 -10 -8 -5 -9 5 -11 4 -6 -3 11 -18 28
-14 24 6 -1 9 1 23 5 30 5 7 3 12 -4 12 -7 0 -8 4 -2 13 5 6 8 46 7 87 -2 92
-1 88 -17 65 -11 -14 -16 -15 -22 -5 -6 9 -4 11 6 5 8 -5 11 -4 6 1 -5 5 -14
9 -20 9 -7 0 -14 16 -17 35 -4 22 -11 34 -19 32 -7 -1 -22 0 -33 3 -16 6 -17
9 -6 23 11 13 11 14 -1 7 -11 -6 -13 -4 -8 8 9 23 -2 27 -72 29 -54 1 -58 3
-41 15 11 8 20 20 19 26 0 9 -2 8 -6 -1 -2 -6 -9 -9 -14 -6 -6 3 -5 12 3 22
11 15 11 15 -4 4 -9 -7 -19 -9 -22 -4 -7 11 -287 9 -305 -2 -9 -6 -12 -5 -7 2
10 17 -28 10 -45 -7z m376 -21 c3 -5 -1 -10 -10 -10 -9 0 -13 5 -10 10 3 6 8
10 10 10 2 0 7 -4 10 -10z m-353 -7 c-6 -2 -10 -8 -8 -12 3 -4 -1 -8 -9 -8
-11 0 -12 4 -4 14 6 7 17 13 23 12 7 0 6 -2 -2 -6z m196 -174 c-6 -4 -8 -15
-4 -24 6 -17 5 -16 -20 0 -25 16 -27 16 -21 1 4 -11 3 -15 -4 -11 -6 4 -8 13
-5 20 3 8 0 15 -7 18 -6 2 8 3 31 3 23 0 37 -3 30 -7z m45 -4 c-3 -9 -8 -14
-10 -11 -3 3 -2 9 2 15 9 16 15 13 8 -4z m347 -25 c0 -5 -8 -7 -17 -3 -16 6
-16 3 2 -18 l20 -24 -21 18 c-11 9 -25 14 -29 10 -5 -5 -3 0 4 10 14 18 41 23
41 7z m-324 -22 c3 -4 6 -58 5 -100 -1 -34 -3 -37 -28 -35 -14 1 -28 -3 -30
-8 -2 -6 6 -11 17 -12 11 -1 18 2 15 7 -3 6 1 7 11 3 15 -5 15 -7 0 -15 -9 -5
-20 -7 -24 -4 -4 2 -14 1 -22 -5 -13 -7 -12 -9 2 -9 9 0 19 -4 22 -9 3 -5 -2
-8 -11 -7 -13 1 -18 -7 -19 -29 -1 -16 -2 -33 -3 -36 -1 -3 -14 -5 -31 -4 -30
2 -35 -5 -31 -47 2 -14 -5 -18 -33 -18 -32 0 -36 -3 -37 -27 -1 -16 -1 -31 0
-35 0 -4 -8 -6 -19 -5 -11 1 -20 6 -20 12 0 5 -4 4 -9 -4 -5 -8 -25 -14 -44
-14 -33 0 -35 -2 -33 -34 1 -31 -1 -33 -29 -32 -84 4 -105 0 -105 -23 0 -19
-2 -20 -10 -8 -5 8 -10 10 -10 4 0 -5 5 -15 12 -22 12 -12 8 -13 -127 -15 -22
0 -43 -5 -47 -11 -5 -7 -8 -7 -8 2 0 8 -5 10 -12 5 -17 -10 -31 -11 -43 -2
-11 8 -37 -3 -37 -16 0 -4 6 -12 14 -16 10 -7 10 -9 0 -9 -7 0 -11 -4 -8 -9 3
-4 -9 -8 -26 -7 -28 1 -55 26 -28 26 6 0 8 -6 4 -12 -6 -10 -4 -10 7 0 16 15
33 16 23 0 -4 -7 -3 -8 4 -4 9 5 9 13 2 26 -7 13 -6 20 2 22 6 2 13 22 15 44
2 21 5 50 6 64 2 20 8 25 32 25 17 1 31 6 31 13 1 7 2 24 3 38 1 21 5 25 21
21 28 -7 49 16 43 48 -4 20 -2 24 11 19 9 -3 24 0 33 7 12 10 15 10 9 2 -4 -7
-2 -13 3 -13 6 0 11 15 11 34 0 32 3 35 33 38 20 2 33 9 33 18 1 8 2 23 3 32
0 10 4 17 9 17 4 -1 19 -1 33 0 23 1 26 5 23 31 -3 28 -2 30 31 30 21 0 35 5
35 13 0 8 3 8 8 1 7 -10 51 -14 53 -4 5 36 4 48 -5 43 -7 -4 -8 -2 -1 5 6 6
30 12 55 14 48 3 211 0 216 -4z m-304 -28 c-2 -8 3 -10 13 -7 8 4 15 2 15 -4
0 -6 -7 -9 -16 -7 -8 2 -14 7 -14 12 1 5 -4 13 -12 18 -10 8 -10 9 2 5 8 -2
14 -10 12 -17z m308 -154 c0 -3 -4 -8 -10 -11 -5 -3 -10 -1 -10 4 0 6 5 11 10
11 6 0 10 -2 10 -4z m-1021 -120 c9 -11 9 -16 0 -22 -8 -4 -9 -3 -5 4 4 7 2
12 -3 12 -6 0 -11 5 -11 10 0 14 5 13 19 -4z m738 -141 c0 -8 -4 -12 -9 -9 -5
3 -6 10 -3 15 9 13 12 11 12 -6z m-486 -45 c6 0 8 4 5 8 -3 5 1 9 9 9 11 0 12
-4 4 -14 -7 -7 -7 -13 -2 -13 5 0 10 -7 10 -16 0 -15 -1 -15 -12 0 -13 17 -30
23 -20 6 11 -18 14 -50 4 -55 -5 -4 -9 1 -9 10 0 9 -4 13 -10 10 -5 -3 -10 -1
-10 4 0 6 5 11 10 11 6 0 8 14 6 33 -3 17 -3 26 0 20 3 -7 10 -13 15 -13z
m-397 -28 c3 -5 -1 -9 -9 -9 -8 0 -12 4 -9 9 3 4 7 8 9 8 2 0 6 -4 9 -8z
m-368 -35 c4 -3 -2 -5 -13 -3 -12 3 -20 -1 -20 -9 0 -7 6 -11 13 -8 6 2 14 1
17 -4 3 -5 -5 -10 -17 -11 -19 -1 -23 3 -23 23 0 18 4 24 18 22 10 -2 21 -6
25 -10z m131 -82 c0 -8 -4 -12 -9 -9 -4 3 -8 9 -8 15 0 5 4 9 8 9 5 0 9 -7 9
-15z m898 -75 c-3 -5 -12 -10 -18 -10 -7 0 -6 4 3 10 19 12 23 12 15 0z m-542
-245 c-3 -9 -8 -14 -10 -11 -3 3 -2 9 2 15 9 16 15 13 8 -4z m715 -342 c-7 -9
-7 -13 1 -13 7 0 9 -5 6 -11 -5 -6 -13 -3 -22 10 -8 12 -19 18 -25 15 -6 -4
-8 -3 -5 2 3 6 17 10 31 10 19 0 23 -3 14 -13z m57 -23 c-3 -5 -12 -10 -18
-10 -7 0 -6 4 3 10 19 12 23 12 15 0z m-1064 -24 c5 3 4 -6 -3 -21 -11 -24
-13 -24 -21 -8 -6 10 -15 22 -21 26 -7 6 -4 7 7 3 10 -3 17 0 18 7 0 9 2 9 6
-1 2 -6 9 -10 14 -6z m252 -54 c-12 -8 -19 -9 -21 -2 -2 5 -9 7 -14 4 -6 -4
-9 -3 -5 2 3 5 17 9 31 9 24 0 25 -1 9 -13z m587 -22 c0 -5 -5 -10 -11 -10 -5
0 -7 5 -4 10 3 6 8 10 11 10 2 0 4 -4 4 -10z m29 -27 c0 -11 -3 -13 -6 -5 -2
6 -10 9 -15 6 -7 -4 -8 -2 -4 4 11 18 26 14 25 -5z m-75 -75 c-3 -4 -11 -5
-19 -1 -21 7 -19 12 4 10 11 0 18 -5 15 -9z m-722 -32 c4 -19 1 -23 -11 -19
-31 11 -34 16 -16 30 24 17 22 17 27 -11z m1108 -27 c0 -5 -4 -9 -8 -9 -5 0
-9 7 -9 15 0 8 4 12 9 9 4 -3 8 -9 8 -15z m-910 -184 c0 -8 -2 -15 -4 -15 -2
0 -6 7 -10 15 -3 8 -1 15 4 15 6 0 10 -7 10 -15z m-39 -18 c-10 -9 -11 -8 -5
6 3 10 9 15 12 12 3 -3 0 -11 -7 -18z m570 -80 c-10 -9 -11 -8 -5 6 3 10 9 15
12 12 3 -3 0 -11 -7 -18z m-1 -157 c0 -5 -5 -10 -11 -10 -5 0 -7 5 -4 10 3 6
8 10 11 10 2 0 4 -4 4 -10z m240 -1 c0 -5 5 -7 12 -3 7 4 8 3 4 -5 -6 -9 -11
-9 -22 0 -17 14 -18 19 -4 19 6 0 10 -5 10 -11z m-272 -64 c-3 -3 -9 2 -12 12
-6 14 -5 15 5 6 7 -7 10 -15 7 -18z m266 -111 c3 -8 2 -12 -4 -9 -6 3 -10 10
-10 16 0 14 7 11 14 -7z"/>
<path d="M1717 2059 c7 -7 15 -10 18 -7 3 3 -2 9 -12 12 -14 6 -15 5 -6 -5z"/>
<path d="M1737 2029 c7 -7 15 -10 18 -7 3 3 -2 9 -12 12 -14 6 -15 5 -6 -5z"/>
<path d="M1257 1951 c-10 -14 -10 -14 4 -4 9 7 18 10 21 7 3 -3 8 -1 12 4 9
16 -24 9 -37 -7z"/>
<path d="M1465 2560 c-3 -6 1 -7 9 -4 18 7 21 14 7 14 -6 0 -13 -4 -16 -10z"/>
<path d="M1330 2521 c0 -7 -4 -10 -9 -7 -5 4 -8 -2 -7 -11 2 -9 8 -18 15 -19
7 -2 7 0 1 3 -8 3 -7 9 1 19 7 8 9 17 5 21 -3 3 -6 1 -6 -6z"/>
<path d="M2254 2221 c3 -5 16 -11 28 -14 22 -6 22 -5 4 8 -22 17 -40 20 -32 6z"/>
<path d="M2195 2111 c-3 -5 -2 -12 3 -15 5 -3 9 1 9 9 0 17 -3 19 -12 6z"/>
<path d="M2135 2020 c-8 -13 5 -13 25 0 13 8 13 10 -2 10 -9 0 -20 -4 -23 -10z"/>
<path d="M393 1990 c2 -8 10 -14 16 -12 13 3 15 -14 2 -23 -5 -3 -12 -1 -16 5
-3 5 -11 10 -18 10 -6 0 -2 -6 8 -14 22 -16 47 -10 43 11 -2 8 -7 13 -12 13
-5 -1 -13 4 -18 12 -8 10 -9 10 -5 -2z"/>
<path d="M690 1921 c0 -6 4 -12 8 -15 5 -3 9 1 9 9 0 8 -4 15 -9 15 -4 0 -8
-4 -8 -9z"/>
<path d="M1870 1836 c0 -2 8 -10 18 -17 15 -13 16 -12 3 4 -13 16 -21 21 -21
13z"/>
<path d="M1750 1760 c0 -5 5 -10 11 -10 5 0 7 5 4 10 -3 6 -8 10 -11 10 -2 0
-4 -4 -4 -10z"/>
<path d="M650 1703 c0 -6 5 -15 11 -18 6 -4 8 -14 5 -22 -3 -8 -1 -11 4 -8 14
8 13 18 -5 41 -8 10 -15 14 -15 7z"/>
<path d="M1535 1700 c-8 -13 5 -13 25 0 13 8 13 10 -2 10 -9 0 -20 -4 -23 -10z"/>
<path d="M598 1403 c-10 -2 -18 -8 -19 -11 0 -4 -2 -15 -4 -25 -2 -9 1 -15 6
-11 5 3 7 9 4 14 -7 12 30 32 40 22 5 -4 5 -1 1 6 -4 6 -8 11 -9 11 -1 -1 -10
-3 -19 -6z"/>
<path d="M853 1173 c0 -9 4 -10 14 -2 7 6 13 12 13 14 0 1 -6 2 -13 2 -8 0
-14 -6 -14 -14z"/>
<path d="M1259 848 c14 -19 32 -15 30 5 0 8 -2 8 -6 -1 -4 -10 -8 -10 -21 0
-15 12 -16 11 -3 -4z"/>
<path d="M1720 645 c0 -6 6 -12 13 -12 8 0 14 6 14 12 0 6 -6 12 -14 12 -7 0
-13 -6 -13 -12z"/>
<path d="M1382 642 c2 -8 7 -13 12 -12 5 1 13 -4 17 -12 5 -7 9 -8 9 -3 0 6
-5 17 -10 25 -9 13 -10 13 -10 0 0 -13 -1 -13 -11 0 -7 10 -9 11 -7 2z"/>
<path d="M1049 582 c-1 -4 -1 -10 0 -15 1 -4 -14 -5 -31 -2 -22 4 -28 2 -19
-4 8 -5 27 -8 42 -6 19 3 28 0 26 -8 -1 -7 5 -12 13 -12 9 0 14 7 12 19 -3 17
-2 18 12 7 9 -7 14 -16 12 -20 -3 -4 4 -7 14 -8 11 -1 22 3 25 8 4 5 10 7 14
5 4 -3 8 1 8 9 0 11 -4 12 -14 4 -16 -14 -18 2 -2 18 9 9 5 11 -12 9 -13 -2
-28 -5 -34 -6 -5 -1 -12 -2 -15 0 -19 7 -50 9 -51 2z m35 -14 c-3 -4 -11 -5
-19 -1 -21 7 -19 12 4 10 11 0 18 -5 15 -9z m58 5 c-10 -4 -10 -8 0 -21 12
-14 10 -14 -11 -3 -19 10 -21 15 -10 22 8 5 19 8 24 8 6 0 4 -3 -3 -6z"/>
<path d="M1192 565 c3 -3 16 -8 28 -10 12 -2 20 -1 16 2 -4 4 -16 8 -28 10
-12 2 -19 1 -16 -2z"/>
<path d="M1653 285 c0 -8 4 -12 9 -9 5 3 6 10 3 15 -9 13 -12 11 -12 -6z"/>
<path d="M1586 102 c-3 -5 1 -9 9 -9 8 0 15 4 15 9 0 4 -4 8 -9 8 -6 0 -12 -4
-15 -8z"/>
<path d="M1670 96 c7 -7 13 -7 20 0 6 6 3 10 -10 10 -13 0 -16 -4 -10 -10z"/>
</g>
</svg>
