<?xml version="1.0" standalone="no"?>
<!DOCTYPE svg PUBLIC "-//W3C//DTD SVG 20010904//EN"
 "http://www.w3.org/TR/2001/REC-SVG-20010904/DTD/svg10.dtd">
<svg version="1.0" xmlns="http://www.w3.org/2000/svg"
 width="836.000000pt" height="836.000000pt" viewBox="0 0 836.000000 836.000000"
 preserveAspectRatio="xMidYMid meet">
<metadata>
Created by potrace 1.14, written by Peter Selinger 2001-2017
</metadata>
<g transform="translate(0.000000,836.000000) scale(0.100000,-0.100000)"
fill="#000000" stroke="none">
<path d="M1135 5330 c-3 -5 -2 -15 1 -24 6 -17 4 -18 -83 -19 -29 -1 -43 -5
-43 -15 0 -7 -4 -10 -10 -7 -5 3 -10 1 -10 -5 0 -6 -5 -8 -10 -5 -8 5 -7 12 2
23 12 15 11 16 -4 3 -10 -7 -16 -17 -13 -21 3 -5 -1 -11 -7 -14 -7 -3 1 -3 18
-1 22 3 31 1 31 -10 0 -10 -5 -11 -17 -5 -10 5 -20 6 -24 3 -3 -4 -21 -8 -39
-9 -17 -1 -36 -3 -42 -3 -5 -1 -4 -6 2 -12 18 -18 3 -39 -28 -39 -16 0 -29 -4
-29 -10 0 -5 -5 -10 -11 -10 -5 0 -8 4 -5 9 7 11 -13 9 -33 -3 -8 -6 -10 -11
-3 -15 17 -10 -1 -30 -28 -33 -30 -4 -41 -17 -34 -40 4 -13 -2 -17 -28 -20
-29 -3 -33 -6 -32 -30 1 -25 -2 -28 -31 -28 -29 0 -31 -2 -27 -30 4 -26 1 -30
-19 -31 -13 -1 -27 -1 -31 0 -5 0 -8 -12 -8 -27 0 -16 -7 -37 -15 -48 -15 -19
-15 -19 -8 1 6 17 5 18 -9 7 -13 -10 -17 -10 -21 0 -5 12 -7 -4 -11 -77 -1
-19 -8 -31 -19 -33 -18 -4 -22 7 -9 24 4 5 -1 1 -11 -9 -9 -11 -17 -32 -17
-48 0 -28 -5 -32 -42 -32 -9 0 -17 -2 -16 -6 4 -38 -3 -49 -35 -49 -30 0 -34
3 -32 27 1 17 -3 28 -12 28 -16 0 -17 -9 -1 -25 9 -9 9 -12 -1 -12 -7 0 -9 -5
-5 -12 4 -7 3 -8 -5 -4 -6 4 -9 12 -6 17 4 5 1 17 -5 26 -11 16 -11 16 -6 1 3
-10 1 -20 -5 -23 -5 -4 -6 -11 -3 -17 4 -7 2 -8 -5 -4 -8 5 -9 12 -2 20 23 27
-13 35 -179 38 -63 1 -62 2 -58 -59 4 -49 7 -58 24 -59 10 -1 38 -2 60 -3 39
-1 41 -2 38 -29 -3 -29 -3 -29 59 -31 46 -1 66 -6 77 -20 9 -9 20 -16 25 -14
6 2 10 -17 11 -42 1 -45 -3 -49 -39 -46 -15 2 -17 -7 -17 -64 0 -38 -4 -64 -9
-60 -5 3 -13 1 -16 -5 -4 -6 -3 -10 2 -9 22 4 25 -2 7 -16 -16 -13 -16 -14 -2
-9 10 3 18 1 18 -5 0 -6 -7 -11 -15 -11 -8 0 -15 -7 -15 -16 0 -14 2 -15 18
-3 15 13 16 12 3 -3 -7 -10 -18 -15 -24 -11 -6 4 -7 1 -3 -6 5 -7 15 -10 23
-7 8 3 11 2 8 -3 -3 -6 -14 -9 -24 -8 -15 1 -18 7 -15 29 1 15 -1 28 -6 28 -5
0 -8 -80 -8 -178 l1 -179 27 2 c22 1 26 -3 28 -27 2 -21 -1 -27 -10 -22 -10 6
-11 4 0 -7 6 -7 12 -26 12 -41 0 -15 5 -28 10 -28 6 0 10 -5 10 -11 0 -5 -4
-8 -8 -5 -4 2 -8 -4 -8 -14 0 -10 4 -16 8 -14 4 3 8 0 8 -6 0 -7 5 -6 14 2 8
7 10 15 5 16 -5 2 -9 11 -9 20 0 14 2 14 9 3 7 -11 9 -11 14 0 3 8 5 1 4 -16
-1 -67 3 -96 16 -94 37 5 47 -2 47 -32 0 -25 4 -30 23 -29 39 4 44 1 40 -27
l-4 -28 87 -3 c48 -1 89 -4 91 -6 2 -2 6 -14 8 -26 5 -25 15 -40 15 -23 0 12
25 12 36 0 4 -4 13 -2 21 4 10 9 13 8 13 -1 0 -8 3 -10 6 -7 9 9 -16 38 -27
31 -5 -3 -6 2 -2 11 3 9 9 13 12 8 10 -13 45 -39 39 -28 -15 25 10 35 95 37
47 1 84 4 82 7 -3 2 0 10 6 18 9 10 8 13 -1 13 -22 0 -2 13 25 15 19 3 25 -1
25 -16 0 -10 -4 -19 -10 -19 -5 0 -10 7 -10 15 0 8 -4 15 -8 15 -17 0 -8 -30
10 -36 19 -6 19 -6 1 -19 -10 -7 -21 -11 -25 -9 -9 6 -9 1 -9 -121 1 -110 5
-152 16 -162 4 -5 4 -2 0 6 -6 10 -4 13 7 9 8 -4 15 0 15 8 0 7 -4 11 -8 9 -4
-3 -5 4 -2 15 9 35 19 31 21 -8 5 -96 8 -101 57 -102 17 0 25 -4 20 -8 -10 -6
-11 -12 -6 -40 0 -5 16 -8 34 -7 17 0 38 -3 45 -8 7 -6 12 -6 12 1 0 5 9 8 20
5 11 -3 28 1 37 8 12 10 14 10 9 2 -4 -7 -3 -13 2 -13 11 0 22 47 14 55 -7 7
0 360 8 375 1 3 2 9 1 13 -1 5 3 6 9 2 5 -3 10 -2 10 4 0 5 -5 11 -12 13 -9 3
-9 6 0 12 7 4 12 2 12 -4 0 -6 5 -8 11 -4 8 5 8 1 0 -14 -14 -27 -14 -32 2
-26 14 5 19 38 20 122 1 47 3 53 22 51 34 -2 38 0 25 16 -11 13 -10 14 1 10
11 -4 14 14 13 102 l0 108 -32 3 c-18 2 -30 7 -27 12 3 5 1 11 -4 15 -6 3 -8
12 -4 20 4 12 -6 15 -56 15 -48 0 -61 -3 -61 -15 0 -8 -5 -15 -11 -15 -5 0 -7
-5 -3 -12 5 -7 11 -5 21 7 7 11 13 14 13 8 0 -18 -21 -27 -70 -30 -63 -5 -70
-8 -64 -37 4 -23 1 -26 -26 -26 -29 0 -34 -7 -31 -42 2 -14 -5 -18 -29 -18
-23 0 -31 -4 -27 -14 3 -7 0 -19 -6 -26 -9 -10 -9 -11 2 -5 10 6 12 4 7 -4 -5
-7 -20 -11 -34 -10 -15 2 -36 -3 -47 -10 -15 -9 -16 -11 -3 -7 14 4 17 0 14
-17 -3 -24 -23 -29 -45 -13 -11 8 -13 8 -8 0 6 -10 -79 -18 -153 -15 -94 4
-95 5 -94 34 1 25 -13 34 -48 28 -5 0 -9 13 -9 29 -2 47 -3 50 -19 61 -13 10
-13 10 0 6 12 -4 16 2 15 23 0 18 -4 26 -12 23 -7 -3 -10 -10 -6 -17 4 -6 0
-6 -9 2 -13 10 -17 10 -21 0 -3 -7 -4 -2 -3 12 3 20 8 24 28 22 15 -1 25 3 25
11 0 9 -10 13 -26 11 -25 -3 -26 -2 -27 59 0 33 1 56 4 49 2 -7 8 -9 13 -6 6
3 5 12 -3 22 -10 12 -7 12 15 -2 28 -19 37 -10 15 13 -7 8 -8 11 -2 8 7 -4 11
19 11 69 1 72 12 104 37 104 6 0 4 -5 -4 -10 -13 -8 -12 -10 3 -10 9 0 17 3
18 8 4 28 9 84 11 125 2 26 4 43 6 38 2 -6 8 -11 13 -11 6 0 7 5 3 12 -5 7 -3
8 6 3 10 -6 9 -11 -6 -23 -15 -12 -16 -14 -2 -9 9 3 19 1 21 -6 2 -7 3 -4 2 6
-2 9 0 17 3 17 4 0 8 16 9 36 1 20 3 38 5 40 2 1 105 4 228 6 186 2 225 5 225
17 0 8 -6 15 -13 17 -7 1 -8 0 -2 -3 17 -8 11 -22 -9 -20 -10 0 -18 8 -17 17
2 22 25 34 42 20 10 -9 14 -9 14 -1 0 7 22 11 60 11 41 0 60 4 60 13 0 8 4 7
10 -3 6 -9 10 -10 10 -3 0 6 -5 15 -10 18 -24 15 12 32 67 34 31 0 62 6 67 12
8 7 6 8 -6 4 -17 -7 -19 9 -4 34 7 11 10 11 17 0 6 -11 11 -11 21 -1 6 6 24
12 39 12 23 0 28 5 31 28 2 20 9 27 25 28 39 2 56 13 44 27 -8 10 -7 17 1 25
14 14 32 16 24 4 -3 -5 1 -9 9 -9 8 0 15 9 15 19 0 10 5 18 11 18 5 0 8 -4 5
-8 -3 -5 1 -9 8 -9 11 0 12 4 3 18 -6 10 -15 16 -19 13 -4 -3 -5 2 -2 9 6 16
28 17 41 2 4 -4 2 -5 -4 -1 -9 5 -11 2 -7 -8 13 -35 24 -11 27 60 1 17 6 20
29 18 28 -4 32 2 28 40 -1 10 4 23 12 27 11 7 10 11 -2 19 -12 8 -12 10 -1 10
10 0 11 3 3 13 -8 10 -6 13 8 14 15 1 18 -4 14 -25 -3 -20 -2 -23 5 -12 5 8 7
18 5 22 -3 4 0 8 5 8 18 0 14 135 -4 150 -13 10 -15 9 -15 -9 0 -14 4 -20 12
-15 7 4 8 3 4 -5 -10 -15 -26 -4 -26 18 0 25 11 33 27 20 9 -8 13 -8 13 -1 0
6 -9 16 -20 22 -15 8 -20 8 -20 -2 0 -9 -3 -9 -10 2 -5 8 -10 28 -10 43 0 16
-5 27 -12 26 -36 -4 -45 2 -43 29 2 26 0 27 -47 30 -47 2 -78 18 -78 41 0 12
-347 13 -355 1z m37 -27 c-6 -2 -9 -10 -6 -15 4 -7 2 -8 -5 -4 -13 9 -5 26 12
25 9 0 8 -2 -1 -6z m185 -149 c-8 -8 -48 -13 -43 -6 2 4 14 8 26 9 12 1 20 0
17 -3z m28 -14 c-3 -5 -13 -10 -21 -10 -8 0 -14 -5 -14 -12 0 -6 -3 -8 -7 -4
-5 4 1 14 11 22 23 16 40 19 31 4z m-31 -31 c6 5 18 6 25 2 7 -5 22 -6 32 -4
21 6 21 5 21 -62 0 -63 -1 -67 -11 -60 -5 3 -13 0 -17 -6 -4 -8 -9 -7 -15 2
-6 10 -9 8 -10 -8 -1 -13 -3 -27 -4 -33 -1 -5 -3 -23 -4 -39 -1 -25 -6 -30
-28 -33 -16 -2 -29 -10 -29 -18 -1 -8 -2 -21 -3 -27 0 -7 -14 -13 -31 -13 -19
0 -30 -5 -31 -15 -1 -8 -2 -21 -3 -27 0 -8 -19 -14 -45 -16 -58 -4 -86 -19
-71 -37 15 -18 -5 -30 -43 -27 -17 2 -26 -2 -22 -8 3 -5 1 -10 -4 -10 -6 0
-11 4 -11 9 0 6 -8 9 -19 8 -12 -1 -18 -9 -18 -24 0 -13 -2 -26 -4 -28 -4 -3
-198 -9 -227 -6 -11 1 -12 11 -6 44 4 23 7 49 6 58 0 9 5 16 11 16 36 -1 48 4
46 21 -3 35 2 42 30 42 26 0 29 3 27 30 -1 16 3 29 8 29 40 -5 52 2 52 29 -1
23 3 27 31 30 28 3 32 7 30 30 -1 18 3 27 13 28 8 1 23 2 33 3 11 1 18 8 16
19 -3 37 0 45 15 33 10 -8 16 -9 21 -1 3 6 11 8 16 5 5 -4 10 2 10 12 1 15 2
15 6 2 7 -27 41 -11 45 19 3 26 6 27 62 27 41 1 61 5 64 14 4 11 7 10 14 -3 7
-12 13 -14 22 -7z m-187 -41 c-3 -7 -5 -2 -5 12 0 14 2 19 5 13 2 -7 2 -19 0
-25z m263 -108 c0 -5 -4 -10 -10 -10 -5 0 -10 5 -10 10 0 6 5 10 10 10 6 0 10
-4 10 -10z m-25 -20 c3 -5 1 -10 -4 -10 -6 0 -11 5 -11 10 0 6 2 10 4 10 3 0
8 -4 11 -10z m-875 -114 c0 -3 -4 -8 -10 -11 -5 -3 -10 -1 -10 4 0 6 5 11 10
11 6 0 10 -2 10 -4z m201 -159 c-10 -9 -11 -8 -5 6 3 10 9 15 12 12 3 -3 0
-11 -7 -18z m-333 -4 c-11 -3 -15 -11 -12 -21 5 -14 4 -14 -4 -2 -13 18 -6 30
16 29 16 -1 16 -2 0 -6z m376 -52 c-2 -2 1 -10 7 -18 13 -15 14 -15 -27 -17
-29 -2 -31 0 -30 34 0 19 5 38 11 42 10 7 48 -32 39 -41z m-718 -9 c1 -7 0 -8
-3 -2 -2 5 -9 10 -14 10 -6 0 -7 -4 -4 -10 3 -6 -1 -7 -10 -3 -13 5 -14 7 -3
14 16 11 31 7 34 -9z m112 -67 c-3 -3 -9 2 -12 12 -6 14 -5 15 5 6 7 -7 10
-15 7 -18z m-20 -10 c-3 -3 -9 2 -12 12 -6 14 -5 15 5 6 7 -7 10 -15 7 -18z
m152 -27 c0 -4 -7 -8 -15 -8 -8 0 -15 4 -15 8 0 5 7 9 15 9 8 0 15 -4 15 -9z
m668 -23 c-3 -3 -9 2 -12 12 -6 14 -5 15 5 6 7 -7 10 -15 7 -18z m-463 -215
c-3 -5 -12 -10 -18 -10 -7 0 -6 4 3 10 19 12 23 12 15 0z m-286 -144 c9 -11 9
-16 -1 -22 -7 -4 -10 -4 -6 1 4 4 3 14 -3 22 -6 7 -9 13 -6 13 2 0 10 -6 16
-14z m8 -192 c-3 -4 -2 -15 3 -24 14 -25 -12 -47 -30 -25 -9 10 -9 15 -1 15 6
0 11 -5 11 -11 0 -5 4 -8 10 -4 15 10 0 34 -18 28 -13 -4 -12 -2 3 10 20 16
34 23 22 11z m759 -117 c1 -9 -2 -15 -7 -11 -5 3 -7 9 -4 14 3 4 0 11 -5 13
-6 3 -5 4 1 3 7 -1 13 -10 15 -19z m-545 -284 c-12 -20 -14 -14 -5 12 4 9 9
14 11 11 3 -2 0 -13 -6 -23z m217 -52 c-2 -9 3 -15 10 -13 8 1 11 -2 7 -8 -4
-7 -11 -8 -18 -2 -7 5 -19 8 -27 7 -9 -2 -17 5 -17 15 -1 12 6 18 23 18 17 0
23 -5 22 -17z m52 9 c0 -5 -2 -10 -4 -10 -3 0 -8 5 -11 10 -3 6 -1 10 4 10 6
0 11 -4 11 -10z m240 -20 c0 -5 -2 -10 -4 -10 -3 0 -8 5 -11 10 -3 6 -1 10 4
10 6 0 11 -4 11 -10z m-19 -17 c13 -16 12 -17 -3 -4 -10 7 -18 15 -18 17 0 8
8 3 21 -13z m249 -178 c0 -5 -5 -3 -10 5 -5 8 -10 20 -10 25 0 6 5 3 10 -5 5
-8 10 -19 10 -25z m-4 -49 c2 -13 -3 -29 -11 -36 -10 -9 -15 -9 -15 -1 0 20
-2 26 -10 36 -5 6 -5 17 0 24 4 8 6 21 3 30 -3 9 2 6 11 -7 10 -12 19 -33 22
-46z m-3 -61 c-3 -9 -8 -14 -10 -11 -3 3 -2 9 2 15 9 16 15 13 8 -4z"/>
<path d="M1206 4786 c3 -8 13 -17 22 -21 13 -5 13 -2 -3 15 -21 24 -26 25 -19
6z"/>
<path d="M813 4705 c0 -8 4 -12 9 -9 5 3 6 10 3 15 -9 13 -12 11 -12 -6z"/>
<path d="M960 4676 c0 -2 7 -7 16 -10 8 -3 12 -2 9 4 -6 10 -25 14 -25 6z"/>
<path d="M740 4645 c-1 -5 -3 -20 -6 -32 -2 -13 -1 -23 4 -24 4 0 15 -2 25 -4
11 -2 14 1 10 8 -4 7 -8 14 -8 17 -1 12 -24 44 -25 35z m16 -41 c1 -9 0 -13
-4 -10 -3 4 -7 14 -8 22 -1 9 0 13 4 10 3 -4 7 -14 8 -22z"/>
<path d="M626 3468 c3 -5 10 -6 15 -3 13 9 11 12 -6 12 -8 0 -12 -4 -9 -9z"/>
<path d="M1147 3236 c-4 -9 -2 -18 4 -21 5 -4 7 -11 4 -16 -4 -5 -1 -9 5 -9 6
0 8 11 6 26 -6 33 -12 39 -19 20z"/>
<path d="M1512 5316 c7 -8 15 -12 17 -11 5 6 -10 25 -20 25 -5 0 -4 -6 3 -14z"/>
<path d="M849 5213 c-7 -10 -9 -15 -5 -11 5 4 14 0 21 -9 9 -13 14 -13 20 -3
5 9 4 11 -3 6 -11 -6 -16 6 -13 27 2 12 -6 8 -20 -10z"/>
<path d="M2220 5045 c-1 -5 -2 -14 -1 -18 4 -23 -20 -44 -44 -40 -22 5 -25 2
-25 -26 0 -30 -6 -35 -42 -32 -14 2 -18 -6 -19 -31 -1 -18 -1 -36 0 -40 0 -5
-3 -8 -9 -8 -5 0 -10 4 -10 9 0 5 -9 7 -20 4 -19 -5 -20 -14 -20 -168 l0 -163
30 -14 c23 -10 30 -19 30 -40 0 -24 4 -28 30 -28 27 0 30 -3 30 -30 0 -26 4
-30 28 -30 15 0 34 -4 42 -10 9 -6 20 -5 30 3 13 10 13 10 2 -5 -8 -9 -19 -15
-26 -12 -6 2 -12 -4 -13 -15 -2 -18 7 -19 202 -20 l203 -1 -3 30 c-2 16 -1 29
3 29 4 -1 21 -1 39 0 l31 1 1 155 c2 129 -1 154 -12 149 -8 -3 -17 2 -21 11
-4 10 -1 15 9 13 7 -2 13 2 12 7 -1 6 -6 9 -11 7 -4 -1 -16 3 -25 10 -14 11
-14 11 -3 -4 9 -11 10 -18 2 -23 -5 -3 -10 -1 -10 4 0 6 -5 11 -11 11 -8 0 -8
-5 1 -15 7 -8 16 -12 21 -9 5 3 9 1 9 -5 0 -6 -15 -10 -32 -9 -54 1 -61 -1
-54 -18 3 -8 2 -12 -4 -9 -6 3 -10 1 -10 -4 0 -6 4 -11 8 -11 4 0 8 -13 7 -30
0 -16 -4 -30 -9 -30 -5 0 -2 -8 5 -17 12 -15 12 -16 -3 -10 -23 9 -45 15 -35
9 4 -2 2 -11 -5 -20 -10 -14 -10 -15 2 -5 9 9 19 9 32 2 16 -9 17 -13 6 -26
-7 -9 -12 -19 -11 -22 1 -3 0 -8 -2 -9 -2 -2 -2 8 -1 22 2 14 -1 26 -5 26 -5
0 -9 -9 -9 -20 0 -11 -7 -23 -15 -26 -10 -4 -13 -13 -10 -25 6 -18 0 -19 -85
-19 -81 0 -91 2 -89 18 3 32 -1 39 -23 39 -41 1 -49 3 -44 12 3 5 -1 14 -9 21
-8 7 -12 16 -9 21 3 5 1 9 -4 9 -15 0 -24 -32 -12 -44 8 -8 9 -5 4 9 -7 18 -6
18 9 6 20 -16 14 -30 -12 -28 -18 1 -19 7 -24 124 0 7 -4 10 -9 7 -4 -3 -8 0
-8 5 0 6 4 11 10 11 5 0 9 17 8 38 0 20 0 67 1 103 1 66 1 66 28 63 15 -1 33
2 39 7 8 7 14 6 19 -1 8 -13 31 9 36 35 4 16 14 19 84 20 83 1 95 -4 95 -42 0
-13 5 -23 11 -23 6 0 8 7 5 16 -4 10 -2 13 7 7 26 -17 77 -30 83 -22 3 5 20 9
37 9 32 0 32 0 34 55 1 30 -3 56 -8 56 -5 1 -13 3 -19 4 -5 1 -19 3 -30 4 -11
0 -20 6 -20 12 0 5 6 7 13 3 9 -6 9 -4 -1 8 -10 13 -10 17 0 20 8 3 7 6 -4 11
-10 3 -22 -1 -30 -11 -11 -13 -11 -14 1 -7 10 6 12 4 6 -5 -6 -9 -4 -11 6 -5
12 8 12 6 0 -8 -20 -25 -32 -21 -26 11 l5 28 -155 0 c-109 -1 -158 -5 -167
-13 -17 -18 -26 -16 -31 5 -3 9 -6 13 -7 7z m44 -38 c-4 -11 -44 -19 -44 -10
0 3 33 18 47 22 1 1 0 -5 -3 -12z m26 -107 c0 -5 -5 -10 -11 -10 -5 0 -7 5 -4
10 3 6 8 10 11 10 2 0 4 -4 4 -10z m-95 -171 c-1 -10 -6 -23 -12 -31 -12 -15
-11 -46 1 -66 7 -11 4 -11 -13 0 -12 7 -17 14 -11 16 5 2 10 8 10 13 0 6 -4 8
-8 5 -4 -2 -8 4 -8 14 0 10 4 16 8 14 11 -7 10 10 -2 24 -7 9 -7 9 2 2 20 -17
32 -11 15 8 -15 16 -15 18 2 18 10 0 17 -7 16 -17z m-137 -184 c-3 -3 -9 2
-12 12 -6 14 -5 15 5 6 7 -7 10 -15 7 -18z m27 -5 c3 -5 1 -10 -4 -10 -6 0
-11 5 -11 10 0 6 2 10 4 10 3 0 8 -4 11 -10z m215 -74 c0 -2 -7 -7 -16 -10 -8
-3 -12 -2 -9 4 6 10 25 14 25 6z m290 -91 c0 5 6 3 12 -3 10 -10 10 -15 -2
-22 -23 -15 -27 -12 -27 16 0 18 2 22 8 13 5 -8 9 -10 9 -4z"/>
<path d="M2809 5041 c-1 -3 -2 -165 -3 -358 l-1 -353 266 0 267 0 5 27 c3 15
1 37 -3 49 -5 13 -4 26 3 33 8 8 4 11 -15 11 -15 0 -29 -6 -31 -12 -4 -10 -6
-10 -6 0 -1 9 -39 12 -157 12 -101 0 -153 3 -149 10 3 6 2 10 -4 10 -11 0 -9
19 3 39 5 7 5 16 -1 20 -12 8 -11 44 2 54 6 5 3 7 -7 3 -12 -3 -15 -1 -11 10
3 7 1 14 -4 14 -13 0 -12 -33 1 -43 7 -5 3 -6 -9 -3 -18 5 -18 5 -3 -7 15 -12
15 -14 0 -24 -14 -8 -15 -13 -4 -26 8 -10 9 -17 3 -21 -6 -4 -7 -14 -4 -23 4
-10 2 -14 -4 -10 -5 3 -9 43 -9 89 1 66 4 83 16 83 8 0 21 -6 28 -15 11 -13
12 -13 10 0 -3 13 18 15 134 16 75 1 143 4 150 7 11 4 16 66 9 109 -1 5 -184
11 -322 11 -24 -1 -25 3 -25 48 -1 27 4 49 9 49 5 0 5 5 -1 13 -6 7 -9 22 -7
32 2 11 4 25 4 30 1 6 5 4 10 -4 7 -10 13 -12 23 -5 7 6 80 10 171 10 133 -1
156 1 152 13 -4 11 -1 10 13 -2 18 -16 19 -16 28 5 13 30 7 58 -17 88 -17 21
-20 22 -15 5 5 -18 5 -18 -6 -4 -11 14 -45 16 -250 16 -131 0 -238 -3 -239 -6z
m515 -47 c3 -8 2 -12 -4 -9 -6 3 -10 10 -10 16 0 14 7 11 14 -7z m-19 -14 c3
-5 1 -10 -4 -10 -6 0 -11 5 -11 10 0 6 2 10 4 10 3 0 8 -4 11 -10z m25 -20 c0
-5 -5 -10 -11 -10 -5 0 -7 5 -4 10 3 6 8 10 11 10 2 0 4 -4 4 -10z m-359 -443
c-1 -12 -15 -9 -19 4 -3 6 1 10 8 8 6 -3 11 -8 11 -12z m-4 -49 c2 -17 0 -19
-7 -8 -5 8 -6 18 -4 22 8 12 10 10 11 -14z"/>
<path d="M3330 5035 c0 -8 4 -15 10 -15 5 0 7 7 4 15 -4 8 -8 15 -10 15 -2 0
-4 -7 -4 -15z"/>
<path d="M3532 5043 c-6 -3 -10 -8 -7 -12 9 -15 -20 -41 -47 -43 -16 -1 -28
-6 -28 -11 0 -4 -4 -5 -10 -2 -6 4 -7 -1 -4 -12 5 -16 4 -16 -10 1 -13 16 -16
17 -16 4 0 -23 28 -30 39 -10 9 15 10 14 11 -5 0 -13 -3 -22 -7 -22 -5 1 -17
1 -29 0 -20 -1 -21 -6 -21 -91 0 -89 2 -93 33 -89 12 1 24 -26 18 -43 -4 -13
0 -18 15 -18 12 0 21 -6 21 -12 0 -10 2 -10 8 -1 12 18 32 0 27 -25 -4 -21 0
-22 59 -22 36 0 68 -5 75 -12 11 -10 13 -10 7 0 -5 8 0 12 14 12 13 0 20 -5
17 -12 -6 -19 11 -48 29 -48 12 0 13 4 4 20 -6 11 -16 17 -22 14 -6 -4 -8 -3
-5 3 7 11 43 10 54 -2 5 -4 2 -5 -4 -1 -7 4 -13 4 -13 -1 0 -15 19 -38 32 -38
7 -1 12 -6 10 -13 -3 -16 15 -16 21 1 2 6 4 -1 4 -18 0 -16 -2 -24 -4 -17 -3
6 -9 12 -14 12 -6 0 -7 -5 -3 -12 4 -6 3 -8 -4 -4 -6 3 -9 16 -7 28 3 11 1 17
-3 14 -4 -4 -8 -24 -8 -44 -1 -20 -2 -42 -3 -49 -1 -9 -33 -11 -118 -10 l-118
2 3 28 c3 27 3 27 -60 27 l-63 0 -2 -46 c-2 -26 -7 -52 -12 -58 -7 -9 -1 -12
21 -14 18 -2 37 -7 43 -12 7 -5 16 -6 21 -2 5 4 0 -3 -10 -15 -18 -22 -18 -22
5 -28 13 -3 98 -4 189 -3 l165 3 -2 25 c-1 19 3 26 17 26 10 0 16 -5 14 -11
-3 -5 4 1 15 14 14 16 19 31 15 45 -5 18 -4 18 12 -4 11 -14 18 -28 16 -32 -4
-13 5 -9 19 10 7 9 9 14 5 10 -9 -8 -36 9 -36 22 0 3 7 7 15 7 8 0 12 -4 9 -9
-3 -4 0 -8 6 -8 7 0 10 35 9 110 -1 61 -5 107 -10 104 -13 -8 -11 10 4 26 10
12 9 12 -6 0 -10 -7 -16 -19 -13 -26 3 -8 -2 -12 -13 -11 -13 1 -17 8 -15 29
3 26 1 28 -32 28 -31 0 -36 3 -31 20 3 11 1 20 -5 20 -5 0 -6 5 -3 10 3 6 -3
10 -15 10 -12 0 -18 -4 -15 -10 3 -5 1 -10 -4 -10 -6 0 -11 5 -11 10 0 6 -30
10 -71 10 -62 0 -70 2 -59 15 8 10 9 15 2 15 -6 0 -16 -8 -21 -17 -6 -11 -11
-13 -11 -5 0 7 -5 10 -12 6 -7 -4 -8 -3 -4 5 4 6 12 9 17 6 5 -4 9 -3 9 2 0
11 -20 40 -20 29 0 -5 -6 -3 -13 3 -8 6 -17 7 -21 3 -5 -4 -2 9 6 28 8 19 13
45 12 57 -1 22 31 39 42 22 3 -5 11 -6 17 -2 7 4 38 8 70 9 54 2 58 0 54 -18
-5 -19 -5 -19 14 -2 10 9 19 13 19 8 0 -5 5 -2 10 6 8 12 9 10 7 -9 -2 -14
-10 -27 -18 -29 -12 -3 -12 -2 0 6 8 6 9 12 3 16 -9 5 -27 -22 -20 -30 2 -1
23 -4 48 -5 44 -4 45 -3 48 29 2 17 7 32 13 32 5 0 9 5 9 11 0 5 -4 8 -9 5 -8
-5 -8 2 -2 33 1 2 8 -2 16 -9 8 -6 18 -9 23 -6 5 3 9 -1 9 -8 0 -8 -6 -12 -14
-9 -7 3 -13 1 -13 -4 0 -12 0 -12 145 -16 l120 -3 3 -297 2 -297 60 0 c41 0
60 4 61 13 1 6 2 136 3 289 0 152 4 280 9 284 4 4 56 8 115 9 l107 1 3 61 3
60 -301 0 -301 -1 3 -31 c3 -28 1 -30 -32 -30 -29 1 -35 4 -32 20 2 18 1 18
-10 4 -12 -15 -15 -14 -32 10 l-20 26 24 -20 c20 -17 22 -17 17 -3 -4 12 -2
15 9 11 7 -3 14 -1 14 3 0 9 -324 15 -348 7z m30 -191 c-7 -2 -10 -7 -7 -12 3
-4 -2 -13 -10 -20 -10 -9 -15 -9 -15 -1 0 6 5 11 11 11 8 0 7 6 -2 17 -10 11
-10 14 -1 9 7 -4 12 -2 12 4 0 6 5 8 12 4 9 -6 9 -9 0 -12z"/>
<path d="M4620 5040 c0 -6 -4 -9 -8 -6 -5 3 -8 -15 -7 -39 1 -26 -3 -45 -9
-45 -7 0 -8 -3 -1 -8 14 -10 14 -302 0 -302 -6 0 -6 -3 0 -8 6 -4 11 -20 11
-37 0 -16 -5 -33 -11 -37 -7 -5 -7 -8 0 -8 6 0 11 -16 11 -35 0 -19 -5 -35
-11 -35 -7 0 -7 -3 0 -8 6 -4 11 -20 11 -37 0 -16 -5 -33 -11 -37 -7 -5 -6 -8
1 -8 7 0 10 -13 9 -28 l-2 -28 89 -3 88 -2 -2 358 -3 358 -60 0 c-43 0 -59 -4
-57 -12 3 -17 -3 -16 -22 3 -9 9 -16 11 -16 4z m33 -50 c3 -11 1 -20 -4 -20
-4 0 -6 -7 -3 -15 4 -8 1 -15 -6 -15 -6 0 -8 -5 -5 -10 4 -6 11 -8 16 -5 5 4
9 1 9 -4 0 -6 -4 -11 -10 -11 -5 0 -7 -7 -4 -15 4 -8 1 -15 -6 -15 -6 0 -8 -5
-5 -10 4 -6 11 -8 16 -5 5 4 9 1 9 -4 0 -6 -4 -11 -10 -11 -5 0 -7 -7 -4 -15
4 -8 1 -15 -6 -15 -6 0 -8 -5 -5 -10 4 -6 11 -8 16 -5 5 4 9 1 9 -4 0 -6 -4
-11 -10 -11 -5 0 -7 -7 -4 -15 4 -8 1 -15 -6 -15 -6 0 -8 -5 -5 -10 4 -6 11
-8 16 -5 5 4 9 1 9 -4 0 -6 -4 -11 -10 -11 -5 0 -7 -6 -4 -14 3 -7 -2 -16 -10
-19 -9 -4 -16 -12 -16 -19 0 -8 3 -9 8 -3 11 15 29 16 29 0 0 -7 -7 -11 -15
-7 -11 4 -11 -1 3 -22 17 -25 17 -26 0 -20 -17 7 -17 6 0 -20 17 -25 17 -26 0
-20 -17 7 -17 6 0 -20 17 -25 17 -26 0 -20 -17 7 -17 6 0 -20 17 -25 17 -26 0
-20 -17 7 -17 6 0 -20 17 -25 17 -26 0 -20 -17 7 -17 6 0 -20 17 -25 17 -26 0
-20 -17 7 -17 6 0 -20 17 -25 17 -26 0 -20 -17 7 -17 6 -1 -19 16 -24 16 -25
-1 -22 -10 2 -20 4 -23 4 -4 1 -5 667 -1 680 3 9 29 -22 34 -39z"/>
<path d="M4625 4979 c-1 -21 1 -36 4 -33 8 8 10 63 3 68 -4 2 -7 -13 -7 -35z"/>
<path d="M4624 4905 c0 -13 3 -22 7 -19 8 4 6 30 -2 38 -3 3 -5 -5 -5 -19z"/>
<path d="M4624 4845 c0 -13 3 -22 7 -19 8 4 6 30 -2 38 -3 3 -5 -5 -5 -19z"/>
<path d="M4624 4785 c0 -13 3 -22 7 -19 8 4 6 30 -2 38 -3 3 -5 -5 -5 -19z"/>
<path d="M4624 4725 c0 -13 3 -22 7 -19 8 4 6 30 -2 38 -3 3 -5 -5 -5 -19z"/>
<path d="M4623 4645 c0 -8 4 -12 9 -9 5 3 6 10 3 15 -9 13 -12 11 -12 -6z"/>
<path d="M4623 4605 c0 -8 4 -12 9 -9 5 3 6 10 3 15 -9 13 -12 11 -12 -6z"/>
<path d="M4623 4565 c0 -8 4 -12 9 -9 5 3 6 10 3 15 -9 13 -12 11 -12 -6z"/>
<path d="M4623 4525 c0 -8 4 -12 9 -9 5 3 6 10 3 15 -9 13 -12 11 -12 -6z"/>
<path d="M4623 4485 c0 -8 4 -12 9 -9 5 3 6 10 3 15 -9 13 -12 11 -12 -6z"/>
<path d="M4623 4445 c0 -8 4 -12 9 -9 5 3 6 10 3 15 -9 13 -12 11 -12 -6z"/>
<path d="M4623 4405 c0 -8 4 -12 9 -9 5 3 6 10 3 15 -9 13 -12 11 -12 -6z"/>
<path d="M4626 4367 c3 -10 9 -15 12 -12 3 3 0 11 -7 18 -10 9 -11 8 -5 -6z"/>
<path d="M5074 5038 c-3 -5 0 -8 5 -8 6 0 11 -3 11 -7 -1 -19 -19 -34 -46 -36
-25 -3 -29 -7 -27 -30 1 -14 -1 -26 -5 -26 -4 1 -19 1 -33 0 -24 -1 -26 -4
-22 -35 3 -33 2 -34 -27 -31 -16 2 -30 0 -30 -5 0 -6 6 -10 13 -10 8 -1 7 -4
-3 -9 -12 -8 -15 -33 -14 -138 2 -194 2 -193 19 -193 8 0 15 5 15 11 0 6 6 4
14 -3 7 -8 12 -26 11 -41 -2 -15 1 -28 6 -28 5 -1 18 -2 28 -3 26 -1 39 -16
15 -16 -18 -1 -18 -1 -1 -11 9 -6 15 -14 12 -20 -4 -5 5 -9 19 -9 41 0 58 -10
45 -26 -9 -11 -9 -14 0 -14 7 0 9 -5 6 -11 -5 -7 48 -9 170 -8 l177 2 -5 23
c-4 25 9 34 48 34 13 0 27 5 30 10 3 6 2 10 -3 10 -6 0 -8 9 -5 20 3 11 10 20
15 20 5 0 7 -4 3 -9 -3 -5 0 -13 6 -17 8 -5 9 -3 5 5 -5 8 -1 14 11 17 14 4
19 13 17 35 -2 28 11 36 49 30 8 -1 9 25 9 184 0 132 -3 175 -14 169 -15 -10
-45 6 -45 24 0 37 -4 42 -33 42 -16 0 -30 5 -30 11 0 5 4 7 10 4 6 -4 7 2 1
17 -6 16 -17 23 -35 23 -32 1 -45 18 -39 49 4 17 3 18 -6 6 -8 -12 -11 -12
-11 -1 0 10 -3 11 -13 2 -8 -6 -17 -7 -21 -3 -10 9 -296 9 -302 0z m333 -24
c-3 -3 -12 -4 -19 -1 -8 3 -5 6 6 6 11 1 17 -2 13 -5z m-232 -97 c11 3 45 6
75 7 62 2 89 -15 67 -44 -11 -13 -10 -13 7 0 18 14 19 13 13 -2 -9 -25 0 -22
14 3 6 12 7 19 1 15 -5 -3 -15 1 -21 8 -7 8 -8 16 -4 19 10 6 44 -18 42 -29
-4 -26 3 -34 27 -30 29 6 33 -1 37 -69 2 -32 8 -49 15 -47 11 2 13 -4 11 -25
0 -4 8 -11 18 -15 16 -7 16 -8 -2 -5 -11 2 -19 9 -17 15 1 7 -4 12 -10 12 -9
0 -13 -19 -13 -59 0 -33 4 -57 9 -54 5 4 5 0 0 -8 -11 -17 -11 -20 -13 -63 -1
-29 -4 -33 -28 -33 -15 0 -29 -6 -31 -12 -2 -6 -8 -11 -13 -11 -6 0 -7 6 -3
13 6 9 4 9 -8 -1 -9 -7 -18 -9 -20 -5 -3 4 -3 2 -2 -4 2 -7 -2 -13 -9 -14 -9
0 -9 -2 1 -6 6 -2 12 -9 12 -15 0 -6 -36 -8 -93 -6 -88 3 -93 4 -93 24 0 15 5
20 14 17 11 -5 11 -7 0 -15 -10 -7 -8 -8 5 -4 13 4 16 2 11 -7 -4 -7 -3 -9 2
-4 5 5 9 12 9 15 0 4 3 12 7 18 5 7 -4 10 -27 9 -20 -2 -37 1 -40 5 -3 5 -14
6 -25 3 -14 -4 -20 0 -20 11 0 11 4 14 13 10 7 -5 6 0 -3 11 -8 10 -16 30 -16
44 -3 49 -4 52 -13 47 -5 -3 -11 0 -14 8 -4 10 0 12 13 9 17 -5 18 -2 10 25
-4 17 -5 33 -2 35 4 2 1 2 -5 1 -7 -2 -13 1 -13 6 0 6 -5 9 -11 8 -6 -2 -13 3
-15 10 -1 7 0 8 3 2 3 -7 10 -7 21 2 12 10 14 10 8 1 -4 -8 -2 -13 6 -13 9 0
13 18 14 61 1 57 20 101 31 72 3 -7 8 -13 12 -13 13 0 31 49 25 67 -4 11 -3
14 3 7 4 -6 17 -9 28 -7z m386 -90 c-10 -9 -11 -8 -5 6 3 10 9 15 12 12 3 -3
0 -11 -7 -18z m-611 -1 c0 -3 -4 -8 -10 -11 -5 -3 -10 -1 -10 4 0 6 5 11 10
11 6 0 10 -2 10 -4z m109 -149 c0 -9 -2 -9 -6 1 -2 6 -9 12 -14 12 -6 0 -7 -4
-4 -10 3 -5 2 -10 -4 -10 -5 0 -9 9 -8 19 1 16 5 18 19 10 10 -5 18 -15 17
-22z m400 -3 c-8 -10 -8 -14 -1 -14 6 0 15 8 21 18 9 15 10 15 8 -5 0 -12 -5
-19 -9 -17 -4 3 -8 -3 -8 -13 -1 -16 -2 -16 -12 2 -17 29 -17 54 -1 48 10 -4
11 -9 2 -19z m-89 -203 c0 -4 -3 -11 -7 -14 -8 -9 -34 13 -28 24 6 9 35 1 35
-10z m-263 -123 c-3 -7 -5 -2 -5 12 0 14 2 19 5 13 2 -7 2 -19 0 -25z m303 10
c0 -4 -4 -8 -9 -8 -6 0 -12 4 -15 8 -3 5 1 9 9 9 8 0 15 -4 15 -9z"/>
<path d="M5172 4893 c8 -11 7 -12 -6 -7 -9 3 -16 2 -16 -3 0 -5 9 -9 19 -10
13 -1 19 4 18 16 0 10 -7 18 -14 18 -10 0 -10 -4 -1 -14z"/>
<path d="M5730 4687 l0 -358 88 2 89 3 -1 58 c0 32 -4 58 -9 58 -4 0 -5 6 0
13 12 19 14 47 3 47 -6 0 -10 5 -10 11 0 5 4 8 8 5 4 -2 8 11 9 30 1 34 -10
44 -23 22 -4 -6 -3 -8 3 -5 5 3 9 -4 7 -16 -1 -12 -3 -22 -4 -22 -2 0 -4 -10
-5 -22 -1 -14 2 -20 9 -16 6 4 5 -1 -3 -10 -7 -9 -10 -17 -6 -17 4 0 1 -8 -6
-17 -10 -11 -10 -14 -1 -9 6 4 12 2 12 -3 0 -6 -6 -11 -12 -11 -9 0 -8 -3 2
-10 8 -5 16 -18 16 -29 1 -11 -2 -18 -7 -15 -4 2 -6 11 -2 19 3 8 1 15 -4 15
-5 0 -9 -11 -9 -24 0 -14 4 -22 8 -20 4 3 8 1 8 -4 0 -6 -8 -13 -17 -16 -10
-4 -14 -4 -11 0 4 4 3 15 -3 25 -5 11 -6 19 -1 19 10 0 9 61 -1 78 -4 6 -3 14
3 17 7 4 8 11 2 18 -10 13 -10 53 1 63 4 4 2 13 -4 20 -7 8 -7 14 0 18 7 4 7
15 1 31 -6 15 -6 27 0 30 6 3 6 15 0 30 -6 15 -6 27 1 30 5 4 7 10 4 15 -3 4
1 7 7 6 26 -3 38 -18 36 -41 -1 -13 -6 -22 -10 -19 -4 2 -5 14 -3 25 3 17 1
18 -9 9 -15 -11 -16 -27 -3 -47 8 -12 2 -17 -16 -14 -5 1 -6 -3 -2 -9 3 -6 11
-8 16 -5 5 4 9 2 9 -4 0 -5 -3 -11 -7 -14 -5 -2 -2 -2 5 0 7 1 10 -1 7 -6 -3
-5 -1 -12 5 -16 6 -4 9 6 6 27 -4 40 8 58 40 58 20 0 24 -5 25 -32 1 -18 1
-36 0 -40 -1 -7 20 -5 35 5 16 9 24 -2 24 -35 0 -16 5 -28 13 -28 8 0 7 -4 -3
-10 -9 -6 -11 -10 -3 -10 7 0 10 -6 7 -14 -4 -10 1 -14 14 -13 12 0 18 5 16 9
-3 5 -9 6 -14 3 -5 -3 -7 4 -5 16 5 25 15 38 15 20 0 -7 4 -10 8 -7 4 2 8 -5
9 -17 3 -78 6 -87 35 -87 24 0 28 -4 28 -30 0 -27 3 -30 30 -30 27 0 30 -3 30
-30 0 -30 0 -30 59 -30 61 0 77 12 65 45 -4 8 -1 15 6 15 6 0 8 5 3 13 -10 16
-11 307 0 307 4 0 5 6 0 13 -10 16 -11 227 0 227 4 0 5 6 0 13 -4 6 -8 24 -9
40 -1 15 -2 31 -3 36 0 4 -28 8 -61 8 l-60 -1 0 -208 0 -208 -30 0 c-29 0 -30
2 -31 43 0 23 -3 36 -6 29 -2 -6 -9 -10 -14 -6 -5 3 -5 14 2 25 6 12 8 23 5
27 -3 3 -6 0 -6 -7 0 -7 -4 -10 -9 -6 -5 3 -13 0 -17 -6 -4 -7 -3 -9 4 -5 7 4
10 -1 9 -14 -1 -11 -6 -19 -12 -17 -10 4 -11 12 -14 81 -1 28 -5 34 -20 33
-11 0 -17 -5 -15 -9 3 -4 -2 -5 -10 -2 -10 4 -16 19 -16 39 0 30 -2 32 -30 30
-28 -2 -30 0 -30 31 0 31 -3 34 -28 34 -18 0 -29 5 -29 15 0 8 4 12 9 9 14 -9
9 6 -7 23 -8 8 -13 19 -10 24 4 5 1 9 -6 9 -8 0 -8 4 1 15 7 9 10 18 6 22 -3
3 -6 1 -6 -6 0 -7 -5 -9 -10 -6 -6 4 -18 1 -26 -6 -12 -10 -13 -9 -8 4 5 13
-5 15 -60 14 l-66 -1 0 -359z m157 321 c2 -18 0 -20 -7 -8 -8 12 -10 13 -10 1
0 -8 -2 -12 -5 -9 -7 7 5 38 14 38 4 0 8 -10 8 -22z"/>
<path d="M6360 5041 c-16 -6 -21 -57 -8 -77 4 -6 4 -14 0 -18 -9 -10 -10 -216
0 -222 5 -3 5 -11 1 -17 -10 -16 -11 -297 -1 -303 5 -3 5 -11 1 -17 -4 -6 -8
-21 -9 -34 -2 -18 2 -22 21 -21 17 2 22 7 19 21 -1 10 4 21 12 24 11 4 12 8 4
13 -6 4 -12 13 -13 21 -2 8 -6 20 -10 27 -5 7 -4 12 2 12 12 0 10 27 -2 48 -5
7 -3 12 4 12 7 0 4 7 -7 15 -16 13 -16 14 -1 9 13 -5 16 -2 14 14 -2 11 -9 27
-16 36 -12 14 -12 16 3 10 12 -5 15 -1 13 12 -1 11 -6 25 -10 32 -5 6 -4 12 1
12 5 0 9 14 9 30 0 17 -4 30 -9 30 -5 0 -6 6 -1 13 20 32 11 53 -20 48 -5 -1
-6 3 -2 9 3 6 10 8 15 5 18 -11 21 17 4 36 -16 18 -16 19 -1 13 13 -5 16 -2
14 12 -1 11 -6 25 -10 32 -5 6 -4 12 1 12 5 0 9 14 9 30 0 17 -4 30 -9 30 -5
0 -6 6 -1 13 20 32 11 53 -20 48 -5 -1 -6 3 -2 9 3 6 10 8 15 5 5 -3 11 -1 14
4 8 13 -6 20 -24 12z m16 -56 c-1 -9 -6 -15 -12 -15 -9 0 -13 19 -6 33 6 12
20 -2 18 -18z m-1 -66 c1 -11 -2 -22 -7 -25 -4 -3 -5 -11 -1 -17 13 -21 11
-36 -4 -30 -12 5 -12 7 -1 14 8 6 9 9 2 9 -10 0 -12 39 -5 79 2 12 15 -12 16
-30z m4 -123 c0 -7 -2 -6 -6 2 -2 6 -8 10 -12 8 -4 -3 -8 1 -8 9 0 11 4 12 14
4 7 -6 13 -17 12 -23z m-3 -51 c-1 -9 -6 -15 -12 -15 -9 0 -13 19 -6 33 6 12
20 -2 18 -18z m-1 -66 c1 -11 -2 -22 -7 -25 -4 -3 -5 -11 -1 -17 13 -21 11
-36 -4 -30 -12 5 -12 7 -1 14 8 6 9 9 2 9 -10 0 -12 39 -5 79 2 12 15 -12 16
-30z m1 -122 c1 -8 -4 -14 -10 -14 -7 0 -12 11 -12 24 0 24 18 16 22 -10z
m-10 -48 c1 -5 2 -10 4 -11 7 -10 7 -39 -1 -44 -6 -3 -5 -11 2 -20 6 -8 8 -14
5 -14 -4 0 -2 -8 3 -19 6 -10 7 -22 3 -26 -4 -3 -7 -12 -7 -17 0 -6 -7 -13
-15 -15 -12 -4 -12 -3 -1 5 9 7 10 11 2 17 -9 5 -9 11 0 22 10 12 10 16 -2 24
-12 7 -12 9 1 9 9 0 11 3 4 8 -5 4 -10 28 -10 54 0 40 8 57 12 27z"/>
<path d="M6696 5040 c-2 -3 -4 -27 -5 -54 -1 -27 -7 -59 -13 -70 -14 -25 -13
-26 4 -37 9 -6 6 -8 -9 -6 -12 2 -26 7 -30 12 -5 4 -2 5 6 0 9 -5 12 -4 7 3
-19 31 -28 -1 -29 -105 0 -28 -2 -31 -16 -20 -12 9 -13 9 -7 0 5 -9 1 -13 -12
-13 -14 0 -19 -8 -21 -27 -6 -102 -5 -98 -32 -96 -27 2 -29 -8 -33 -142 0 -25
-5 -31 -23 -31 -20 0 -21 2 -8 16 8 9 12 20 8 25 -5 4 -2 5 6 0 9 -5 12 -4 8
3 -4 5 -15 9 -24 8 -13 -2 -18 -16 -21 -57 -2 -29 -9 -60 -15 -68 -10 -12 -9
-13 1 -7 11 7 12 4 3 -13 -15 -28 -2 -33 75 -29 55 3 59 5 59 28 0 20 6 26 28
28 23 3 27 8 27 33 l0 30 175 -1 c99 -1 176 -6 176 -11 1 -5 2 -17 3 -26 1
-10 5 -24 9 -30 5 -7 4 -13 -1 -13 -6 0 -8 -9 -5 -20 5 -18 14 -20 95 -20 l90
0 -6 53 c-3 28 -5 55 -6 59 0 4 -9 5 -20 3 -26 -5 -31 6 -34 68 -3 49 -4 52
-32 57 -26 5 -29 9 -26 38 2 21 -1 32 -10 32 -9 0 -9 3 -2 8 22 14 12 42 -16
42 -28 0 -31 11 -34 117 0 23 -4 39 -8 37 -5 -3 -8 3 -8 13 0 15 -2 16 -10 3
-6 -10 -4 -20 6 -31 12 -14 12 -15 -6 -14 -11 1 -23 5 -27 10 -5 4 -3 5 3 2 7
-4 12 3 12 18 0 14 -4 22 -9 19 -10 -6 -12 7 -9 44 1 12 -4 22 -12 22 -8 0 -9
3 -3 8 13 9 16 42 4 43 -5 1 -13 3 -19 4 -5 1 -14 3 -20 4 -5 0 -10 14 -10 30
l0 28 -86 -1 c-47 0 -87 -3 -88 -6z m28 -26 c3 -8 2 -12 -4 -9 -6 3 -10 10
-10 16 0 14 7 11 14 -7z m66 -168 c0 -2 -7 -7 -16 -10 -8 -3 -12 -2 -9 4 6 10
25 14 25 6z m-6 -28 c-5 -8 -2 -9 9 -5 14 5 17 0 17 -32 0 -43 8 -55 26 -40
23 19 30 2 33 -85 l2 -86 -90 1 -91 1 0 29 c0 20 5 29 16 29 8 0 12 5 9 10 -3
6 -1 10 4 10 6 0 11 -4 11 -10 0 -5 4 -10 8 -10 4 0 8 12 8 28 2 121 5 165 13
154 7 -11 9 -11 14 2 4 9 9 16 12 16 4 0 3 -5 -1 -12z m-54 -148 c0 -5 -4 -10
-10 -10 -5 0 -10 5 -10 10 0 6 5 10 10 10 6 0 10 -4 10 -10z m178 -65 c1 -13
-2 -26 -6 -29 -6 -3 -8 36 -3 52 3 8 7 -2 9 -23z m-433 -114 c3 -5 2 -12 -3
-15 -5 -3 -9 1 -9 9 0 17 3 19 12 6z m678 -87 c-3 -8 -7 -14 -10 -14 -3 0 -2
7 1 16 4 10 2 14 -6 11 -7 -2 -11 -11 -10 -18 2 -8 0 -10 -4 -6 -11 11 -14 38
-3 31 5 -3 9 0 9 7 0 9 3 9 14 -1 8 -6 12 -18 9 -26z"/>
<path d="M6816 4702 c-3 -5 1 -9 9 -9 8 0 12 4 9 9 -3 4 -7 8 -9 8 -2 0 -6 -4
-9 -8z"/>
<path d="M7229 5041 c-1 -3 -2 -165 -3 -358 l-1 -353 243 0 c160 0 241 3 237
10 -3 6 1 10 9 10 9 0 16 -5 16 -12 0 -6 2 -9 5 -6 9 8 -6 38 -16 32 -9 -5
-11 2 -11 31 0 37 3 46 14 39 6 -4 8 -3 5 4 -5 6 -67 11 -169 12 -99 0 -167 5
-175 12 -9 7 -13 7 -13 -1 0 -7 -5 -9 -11 -5 -8 4 -7 9 2 15 7 4 19 3 25 -2 9
-7 12 -5 10 8 -2 10 2 21 8 25 8 5 7 8 -1 8 -7 0 -13 5 -13 11 0 5 5 7 12 3 7
-5 8 -3 2 7 -12 19 -12 52 0 61 6 4 5 12 -3 21 -8 11 -9 17 -1 22 6 3 7 12 3
18 -11 17 -10 51 1 59 6 4 5 12 -3 21 -8 11 -9 17 -1 22 6 3 7 12 3 18 -11 17
-10 51 1 59 6 4 5 12 -3 21 -8 11 -9 17 -1 22 8 5 8 10 0 20 -8 10 -8 15 0 20
8 5 8 10 0 20 -8 10 -8 15 0 20 8 5 8 10 0 20 -8 10 -8 15 0 20 8 5 8 11 1 19
-6 7 -7 17 -3 21 4 5 1 5 -5 1 -8 -4 -13 -2 -13 6 0 9 -3 9 -10 -2 -8 -11 -12
-12 -18 -3 -8 12 -121 15 -123 4z m161 -46 c-8 -9 -8 -15 0 -20 8 -5 8 -10 0
-20 -8 -10 -8 -15 0 -20 8 -5 8 -10 0 -20 -8 -10 -8 -15 0 -20 8 -5 8 -10 0
-20 -8 -9 -8 -15 0 -20 6 -3 7 -12 3 -18 -11 -17 -11 -50 -1 -64 5 -6 4 -14
-2 -18 -8 -5 -8 -10 0 -20 6 -7 7 -16 2 -19 -10 -6 -10 -46 1 -63 4 -6 3 -15
-3 -18 -8 -5 -8 -11 0 -20 6 -7 7 -16 2 -19 -5 -3 -8 -29 -7 -59 1 -42 -2 -53
-16 -54 -12 -1 -16 8 -16 38 0 27 4 38 12 35 6 -2 12 2 12 9 0 7 -6 11 -12 8
-8 -2 -12 6 -12 22 0 16 4 24 12 22 6 -3 12 1 12 8 0 7 -6 11 -12 8 -8 -2 -12
6 -12 22 0 16 4 24 12 22 6 -3 12 1 12 8 0 7 -6 11 -12 8 -8 -2 -12 6 -12 22
0 16 4 24 12 22 6 -3 12 1 12 8 0 7 -6 11 -12 8 -8 -2 -12 6 -12 22 0 16 4 24
12 22 6 -3 12 1 12 8 0 7 -6 11 -12 8 -8 -2 -12 6 -12 22 0 20 3 25 16 21 11
-4 10 -2 -3 9 -15 11 -16 15 -5 16 11 0 11 2 0 6 -11 4 -11 7 0 13 18 12 20
40 2 47 -12 5 -12 7 -1 14 10 7 10 9 -2 9 -13 0 -13 2 -1 9 8 5 16 17 17 25 1
9 -2 14 -7 10 -5 -3 -7 -10 -4 -15 4 -5 1 -9 -4 -9 -15 0 -14 27 2 33 20 7 39
-13 27 -28z m-23 -70 c0 -8 -4 -15 -9 -15 -4 0 -8 7 -8 15 0 8 4 15 8 15 5 0
9 -7 9 -15z"/>
<path d="M7373 4965 c0 -8 4 -12 9 -9 5 3 6 10 3 15 -9 13 -12 11 -12 -6z"/>
<path d="M7373 4885 c0 -8 4 -12 9 -9 5 3 6 10 3 15 -9 13 -12 11 -12 -6z"/>
<path d="M7363 4833 c0 -9 4 -10 14 -2 7 6 13 12 13 14 0 1 -6 2 -13 2 -8 0
-14 -6 -14 -14z"/>
<path d="M7363 4777 c0 -8 6 -14 14 -14 9 0 10 4 2 14 -6 7 -12 13 -14 13 -1
0 -2 -6 -2 -13z"/>
<path d="M7363 4713 c0 -9 4 -10 14 -2 7 6 13 12 13 14 0 1 -6 2 -13 2 -8 0
-14 -6 -14 -14z"/>
<path d="M7363 4657 c0 -8 6 -14 14 -14 9 0 10 4 2 14 -6 7 -12 13 -14 13 -1
0 -2 -6 -2 -13z"/>
<path d="M7363 4593 c0 -9 4 -10 14 -2 7 6 13 12 13 14 0 1 -6 2 -13 2 -8 0
-14 -6 -14 -14z"/>
<path d="M7364 4520 c0 -16 3 -27 6 -25 8 5 6 42 -1 50 -3 2 -5 -8 -5 -25z"/>
<path d="M7772 5035 c-15 -17 -15 -17 16 -20 12 -1 22 2 22 7 0 6 -7 8 -14 5
-10 -4 -13 -1 -9 9 7 18 2 17 -15 -1z"/>
<path d="M7809 5035 c10 -13 8 -681 -2 -691 -4 -5 -5 0 -2 11 5 13 4 16 -2 8
-6 -9 -12 -7 -22 8 -7 12 -8 18 -3 15 6 -3 8 9 6 32 -2 28 -1 33 7 22 8 -12 9
-10 4 8 -4 15 -2 22 7 22 10 0 9 3 -2 10 -12 8 -12 10 -1 10 11 0 11 3 1 15
-16 19 -26 19 -34 -1 -5 -14 -4 -15 9 -4 8 7 15 8 15 2 0 -5 -6 -15 -14 -21
-8 -7 -12 -21 -8 -34 5 -20 4 -20 -11 -8 -9 7 -17 10 -17 6 0 -4 8 -14 18 -22
16 -13 16 -14 -3 -9 -11 3 -24 2 -30 -2 -14 -10 -17 -32 -5 -32 6 0 10 7 10
15 0 8 3 15 8 15 10 0 39 -20 28 -20 -5 0 -2 -7 5 -16 11 -14 11 -18 -4 -29
-14 -10 35 -13 258 -14 297 -2 282 -5 276 47 -1 7 5 15 14 18 21 8 19 25 -2
18 -12 -4 -10 1 7 16 23 20 23 20 3 10 -16 -7 -23 -7 -23 0 0 6 -62 10 -179
10 l-179 0 0 88 1 89 146 0 c179 1 171 1 171 14 0 5 -4 8 -8 5 -4 -2 -8 18 -7
45 0 40 2 46 12 33 6 -9 10 -25 8 -35 -2 -11 0 -17 5 -14 5 3 7 -6 4 -21 -3
-18 -1 -25 8 -22 8 3 13 22 14 49 0 58 -5 73 -21 59 -9 -8 -15 -8 -20 0 -4 6
-63 10 -160 10 l-153 0 2 88 1 87 175 1 c96 1 177 2 180 3 3 1 5 13 4 29 -1
15 -3 41 -3 58 l-1 31 -250 0 c-171 -1 -247 -4 -241 -12z m477 -330 c0 -28 -8
-24 -13 5 -2 11 1 20 5 20 4 0 8 -11 8 -25z"/>
<path d="M3480 5036 c0 -2 7 -7 16 -10 8 -3 12 -2 9 4 -6 10 -25 14 -25 6z"/>
<path d="M4570 4999 c0 -5 5 -7 10 -4 6 3 10 8 10 11 0 2 -4 4 -10 4 -5 0 -10
-5 -10 -11z"/>
<path d="M7776 4995 c-20 -21 -21 -32 -1 -15 8 7 15 8 15 2 0 -5 -6 -14 -13
-20 -16 -14 -15 -56 4 -78 12 -16 12 -17 -1 -12 -11 4 -16 0 -16 -12 0 -10 4
-16 8 -14 4 3 8 0 8 -5 0 -6 -6 -11 -12 -11 -8 0 -5 -7 6 -15 17 -13 16 -19
-4 -17 -3 0 -5 -15 -5 -33 0 -25 3 -31 12 -23 7 6 11 14 8 18 -3 5 -1 11 4 15
13 8 5 -33 -10 -52 -19 -22 -18 -62 1 -55 13 5 13 3 1 -11 -7 -9 -10 -17 -5
-17 5 0 2 -4 -6 -10 -12 -8 -12 -10 3 -16 9 -3 14 -10 11 -15 -3 -5 -9 -7 -14
-4 -10 6 -8 -15 3 -32 4 -6 2 -13 -4 -15 -7 -2 -1 -11 12 -20 l24 -15 0 92 c0
51 -3 91 -8 88 -4 -2 -4 -9 -1 -15 4 -7 2 -8 -4 -4 -13 8 -5 36 12 36 6 0 4 5
-4 10 -8 5 -10 10 -5 10 12 0 14 129 2 148 -5 7 -3 12 4 12 8 0 6 5 -5 13 -18
13 -13 47 8 47 6 0 4 5 -4 10 -8 5 -10 10 -3 10 6 0 10 7 9 15 -3 24 -13 27
-30 10z m20 -154 c0 -17 -3 -28 -6 -26 -5 3 -6 38 -1 53 4 10 7 -3 7 -27z m4
-45 c0 -2 -8 -10 -17 -17 -16 -13 -17 -12 -4 4 13 16 21 21 21 13z m-4 -160
c0 -14 -3 -23 -7 -20 -6 3 -6 22 0 42 3 10 7 -2 7 -22z m0 -70 c0 -19 -4 -32
-8 -30 -5 3 -6 9 -3 14 3 5 1 12 -5 15 -8 5 -7 11 1 21 15 18 15 19 15 -20z"/>
<path d="M4970 4965 c-7 -9 -11 -17 -9 -20 3 -2 10 5 17 15 14 24 10 26 -8 5z"/>
<path d="M5536 4953 c-6 -14 -5 -15 5 -6 7 7 10 15 7 18 -3 3 -9 -2 -12 -12z"/>
<path d="M7797 4933 c-10 -9 -9 -23 1 -23 5 0 9 7 9 15 0 17 -1 18 -10 8z"/>
<path d="M6643 4922 c-9 -6 -7 -11 6 -19 15 -10 19 -9 17 2 -3 20 -10 25 -23
17z"/>
<path d="M2975 4909 c-4 -6 -12 -8 -19 -6 -14 6 -19 -30 -5 -38 5 -4 6 -12 2
-18 -4 -6 -7 -28 -8 -48 -1 -28 2 -36 14 -34 9 2 18 4 21 4 8 1 7 41 -1 41
-10 0 -5 44 6 52 6 5 6 8 -2 8 -12 0 -12 17 0 38 5 6 6 12 3 12 -3 0 -8 -5
-11 -11z m-8 -34 c0 -8 -4 -12 -9 -9 -4 3 -8 9 -8 15 0 5 4 9 8 9 5 0 9 -7 9
-15z m0 -40 c0 -8 -4 -12 -9 -9 -5 3 -6 10 -3 15 9 13 12 11 12 -6z m0 -45
c-1 -21 -10 -18 -13 5 -1 8 2 15 6 15 5 0 8 -9 7 -20z"/>
<path d="M4320 4910 c-13 -9 -13 -10 0 -10 13 0 13 -1 0 -10 -13 -9 -13 -10 0
-10 13 0 13 -1 0 -10 -13 -9 -13 -10 0 -10 9 0 11 -3 5 -8 -12 -9 -16 -54 -4
-46 5 3 9 0 9 -5 0 -6 -6 -11 -12 -11 -9 0 -8 -4 2 -10 13 -9 13 -10 0 -10
-13 0 -13 -1 0 -10 8 -5 10 -10 5 -10 -6 0 -11 -15 -11 -34 0 -19 4 -32 8 -30
4 3 8 0 8 -5 0 -6 -6 -11 -12 -11 -9 0 -8 -4 2 -10 13 -9 13 -10 0 -10 -13 0
-13 -1 0 -10 8 -5 10 -10 5 -10 -6 0 -11 -15 -11 -34 0 -19 3 -33 7 -30 4 2 9
-3 12 -11 4 -9 1 -12 -7 -9 -9 3 -13 -5 -12 -30 1 -19 4 -32 8 -29 5 2 8 -1 8
-6 0 -6 -6 -11 -12 -11 -9 0 -8 -4 2 -10 13 -9 13 -10 0 -10 -13 0 -13 -1 0
-10 8 -5 10 -10 5 -10 -6 0 -11 -15 -11 -34 0 -19 3 -33 7 -30 4 2 9 -3 12
-11 4 -9 1 -12 -9 -8 -7 3 -14 1 -14 -4 0 -10 40 -15 41 -5 5 43 4 70 -4 69
-5 -1 -12 4 -14 11 -3 7 1 11 8 10 10 -2 13 19 14 89 0 50 -4 91 -9 90 -5 -1
-11 4 -13 11 -3 7 1 11 8 10 9 -2 13 12 14 49 0 28 -4 51 -8 50 -5 -1 -12 4
-14 11 -3 7 1 11 8 10 10 -2 13 17 14 75 1 80 -9 103 -35 87z m25 -46 c1 -19
-3 -34 -7 -34 -5 0 -6 -6 -1 -12 10 -16 12 -68 2 -62 -4 2 -6 15 -3 29 2 13 0
27 -6 30 -6 4 -7 13 -2 23 5 9 8 29 7 45 -1 15 1 25 4 22 3 -4 6 -22 6 -41z
m1 -161 c-10 -11 -19 -7 -22 10 -2 15 0 16 12 6 8 -6 12 -14 10 -16z m0 -47
c0 -14 -3 -23 -7 -20 -6 3 -6 22 0 42 3 10 7 -2 7 -22z m0 -73 c-10 -11 -19
-7 -22 10 -2 15 0 16 12 6 8 -6 12 -14 10 -16z m1 -60 c0 -7 -4 -13 -9 -13 -5
0 -6 -6 -1 -12 10 -16 12 -68 2 -62 -4 2 -6 14 -4 26 3 11 1 26 -2 32 -12 18
-10 43 2 43 6 0 12 -6 12 -14z m-1 -140 c-10 -11 -19 -7 -22 10 -2 15 0 16 12
6 8 -6 12 -14 10 -16z"/>
<path d="M2355 4889 c-4 -6 -5 -12 -2 -15 2 -3 7 2 10 11 7 17 1 20 -8 4z"/>
<path d="M3620 4800 c0 -6 7 -10 15 -10 8 0 15 2 15 4 0 2 -7 6 -15 10 -8 3
-15 1 -15 -4z"/>
<path d="M6575 4780 c3 -5 8 -10 11 -10 2 0 4 5 4 10 0 6 -5 10 -11 10 -5 0
-7 -4 -4 -10z"/>
<path d="M2593 4734 c-3 -8 -2 -19 3 -24 5 -5 9 1 9 16 0 28 -3 30 -12 8z"/>
<path d="M7006 4741 c-8 -12 4 -41 16 -41 6 0 5 6 -2 15 -6 8 -9 19 -5 25 3 5
4 10 1 10 -3 0 -7 -4 -10 -9z"/>
<path d="M4 4720 c0 -10 6 -16 13 -13 7 3 13 9 13 13 0 4 -6 10 -13 13 -7 3
-13 -3 -13 -13z"/>
<path d="M5869 4723 c-13 -16 -12 -17 4 -4 9 7 17 15 17 17 0 8 -8 3 -21 -13z"/>
<path d="M7030 4731 c0 -6 4 -13 10 -16 6 -3 7 1 4 9 -7 18 -14 21 -14 7z"/>
<path d="M3420 4720 c-13 -9 -13 -10 0 -10 13 0 13 -1 0 -11 -10 -7 -11 -9 -2
-7 8 2 13 7 12 12 -1 5 4 13 12 17 7 5 9 9 3 9 -5 0 -17 -5 -25 -10z"/>
<path d="M2534 4675 c-4 -8 -9 -13 -13 -11 -4 3 -8 -5 -8 -17 -2 -18 0 -19 8
-7 20 31 30 50 24 50 -3 0 -8 -7 -11 -15z"/>
<path d="M3899 4673 c-13 -16 -12 -17 4 -4 16 13 21 21 13 21 -2 0 -10 -8 -17
-17z"/>
<path d="M2536 4641 c-3 -5 1 -11 9 -14 9 -4 12 -1 8 9 -6 16 -10 17 -17 5z"/>
<path d="M2525 4604 c9 -9 19 -13 23 -10 3 4 0 11 -8 16 -24 15 -33 11 -15 -6z"/>
<path d="M5865 4601 c-6 -11 9 -23 19 -14 9 9 7 23 -3 23 -6 0 -12 -4 -16 -9z"/>
<path d="M5987 4579 c7 -7 15 -10 18 -7 3 3 -2 9 -12 12 -14 6 -15 5 -6 -5z"/>
<path d="M5869 4568 c-7 -26 -5 -59 3 -64 7 -4 8 -2 4 5 -4 6 -2 18 4 26 10
11 10 15 1 15 -7 0 -9 5 -6 10 3 6 4 10 1 10 -3 0 -6 -1 -7 -2z"/>
<path d="M3558 4492 c4 -11 1 -13 -8 -7 -9 5 -11 4 -6 -3 4 -7 2 -12 -5 -12
-7 0 -10 -2 -7 -5 3 -3 12 -3 21 0 19 8 29 42 12 42 -8 0 -11 -7 -7 -15z"/>
<path d="M5865 4481 c-3 -5 -2 -12 3 -15 5 -3 9 1 9 9 0 17 -3 19 -12 6z"/>
<path d="M270 4451 c0 -7 -4 -10 -8 -7 -5 3 -9 -2 -9 -10 0 -13 2 -13 16 0 8
9 12 19 8 22 -4 4 -7 2 -7 -5z"/>
<path d="M8345 4430 c-3 -5 -4 -14 0 -19 3 -5 -3 -16 -14 -23 -17 -12 -17 -15
-3 -28 14 -13 15 -12 9 4 -5 13 -3 17 5 13 9 -3 13 6 13 29 0 37 -1 39 -10 24z"/>
<path d="M7799 4428 c-4 -12 -5 -57 0 -53 6 6 10 55 4 55 -1 0 -3 -1 -4 -2z"/>
<path d="M7740 4383 c0 -15 19 -37 26 -31 3 4 -1 14 -10 23 -9 9 -16 13 -16 8z"/>
<path d="M6590 4377 c0 -2 6 -10 14 -16 11 -9 16 -9 22 1 4 7 4 10 -1 6 -4 -4
-14 -3 -22 3 -7 6 -13 9 -13 6z"/>
<path d="M8346 4343 c-6 -14 -5 -15 5 -6 7 7 10 15 7 18 -3 3 -9 -2 -12 -12z"/>
<path d="M440 4005 c-10 -12 -10 -15 1 -15 9 0 10 -3 4 -8 -13 -9 -17 -32 -6
-32 5 0 11 9 14 21 4 13 10 18 17 14 9 -6 9 -2 1 14 -14 25 -15 25 -31 6z"/>
<path d="M448 3948 c-10 -10 -13 -18 -8 -18 6 0 12 0 15 0 3 0 5 3 4 6 0 4 5
10 11 14 7 4 8 10 4 12 -5 3 -17 -3 -26 -14z"/>
<path d="M1075 3960 c-3 -5 -1 -11 5 -15 6 -4 8 -10 6 -14 -3 -4 1 -8 9 -8 8
0 13 3 10 5 -3 3 0 11 6 19 6 7 10 13 8 14 -31 6 -40 6 -44 -1z m35 -6 c0 -8
-19 -13 -24 -6 -3 5 1 9 9 9 8 0 15 -2 15 -3z"/>
<path d="M2212 3943 c3 -25 -1 -28 -29 -31 -29 -3 -33 -7 -33 -33 0 -26 -3
-29 -30 -29 -27 0 -30 -3 -30 -30 0 -29 -7 -34 -42 -31 -15 2 -17 -16 -18
-179 0 -118 3 -180 10 -180 5 0 10 6 10 13 0 9 3 8 9 -2 5 -7 14 -10 20 -7 7
5 11 -5 11 -28 0 -26 4 -36 16 -36 9 0 14 -6 11 -12 -2 -7 -11 -11 -18 -10 -8
2 -11 0 -6 -4 4 -4 18 -9 30 -10 12 -2 17 0 10 2 -7 3 -9 12 -6 20 9 25 23 15
23 -16 0 -27 3 -30 30 -30 25 0 30 -4 30 -25 0 -14 6 -26 13 -26 60 -6 325 -3
334 4 7 5 18 5 25 1 10 -5 11 -4 1 7 -23 24 -15 39 21 39 19 0 38 5 41 10 5 8
11 8 20 0 9 -7 16 -6 25 5 8 9 9 15 4 14 -21 -4 -28 2 -14 11 8 5 10 10 4 10
-6 0 -17 -7 -24 -15 -7 -8 -17 -15 -23 -15 -6 0 -2 7 10 15 12 9 21 21 19 28
-1 6 -1 9 1 5 3 -5 8 -8 12 -8 11 0 8 174 -3 182 -5 3 -10 17 -11 30 -1 20 -7
23 -51 26 l-49 3 1 -108 c0 -59 -1 -114 -4 -120 -2 -8 -19 -12 -43 -10 -21 2
-39 0 -39 -5 0 -4 5 -8 12 -8 6 0 8 -3 5 -7 -4 -3 -16 2 -27 12 -18 16 -20 16
-20 2 0 -10 5 -17 10 -17 6 0 10 -5 10 -11 0 -8 -4 -8 -14 0 -9 7 -17 8 -20 2
-3 -5 -3 -11 1 -14 5 -2 2 -2 -4 -1 -7 2 -13 -2 -13 -9 0 -8 -3 -8 -8 -2 -8
12 -22 13 -39 2 -6 -4 -14 -3 -18 3 -4 6 -11 8 -16 4 -5 -3 -9 -2 -8 3 7 39
-2 49 -36 45 -19 -2 -42 1 -50 8 -11 9 -15 9 -15 1 0 -7 -4 -9 -10 -6 -5 3
-10 20 -10 36 0 26 -3 29 -25 25 -13 -3 -27 -1 -29 3 -3 3 -6 40 -7 81 -1 41
-7 78 -13 82 -8 5 -7 8 2 8 6 0 12 9 12 21 0 13 -4 18 -12 13 -10 -6 -10 -4 0
7 6 7 12 31 12 53 0 21 3 37 6 34 6 -7 48 31 50 45 1 4 3 10 4 15 1 4 1 17 0
30 -1 12 4 22 10 22 6 0 9 -4 6 -8 -3 -5 1 -9 9 -9 8 0 12 4 9 9 -5 8 25 12
54 9 8 -1 21 4 30 11 9 7 13 8 9 2 -4 -8 2 -11 18 -10 18 1 23 5 20 17 -7 22
16 40 45 34 25 -5 40 -15 22 -15 -7 0 -12 -5 -12 -11 0 -5 5 -7 12 -3 7 5 8 3
3 -6 -6 -10 -12 -7 -26 11 -10 13 -21 20 -25 16 -4 -4 -2 -7 4 -7 7 0 12 -5
12 -11 0 -8 -5 -8 -15 1 -10 9 -15 9 -15 1 0 -6 5 -11 11 -11 5 0 8 -3 6 -7
-3 -5 16 -9 41 -11 107 -5 127 -8 128 -20 1 -7 2 -19 3 -27 1 -10 12 -15 31
-15 26 0 30 4 30 26 0 14 4 23 10 19 6 -3 10 -1 10 4 0 6 -4 11 -10 11 -5 0
-10 13 -10 29 0 26 -4 30 -32 33 -29 3 -33 6 -30 31 l3 27 -163 0 c-117 0
-168 -4 -177 -12 -11 -10 -13 -10 -7 0 4 6 2 12 -4 12 -7 0 -10 -12 -8 -27z
m33 -3 c-3 -5 -1 -10 6 -10 7 0 10 -3 6 -6 -9 -9 -28 6 -22 17 4 5 8 9 11 9 3
0 2 -4 -1 -10z m111 -67 c-3 -4 -6 -1 -6 6 0 7 -4 9 -10 6 -6 -4 -7 1 -3 11 6
15 7 15 15 -1 6 -9 7 -19 4 -22z m-157 -92 c7 -1 -33 -30 -41 -31 -4 0 -6 9
-5 20 1 14 7 18 22 15 11 -2 22 -4 24 -4z m-119 -21 c-8 -5 -19 -10 -25 -10
-5 0 -3 5 5 10 8 5 20 10 25 10 6 0 3 -5 -5 -10z m50 -96 c0 -8 -19 -13 -24
-6 -3 5 1 9 9 9 8 0 15 -2 15 -3z m-15 -32 c-3 -3 -11 0 -18 7 -9 10 -8 11 6
5 10 -3 15 -9 12 -12z m532 -44 c-2 -7 1 -22 6 -33 15 -27 17 -46 6 -39 -5 3
-7 9 -4 14 3 5 0 12 -7 17 -15 9 -20 53 -6 53 5 0 8 -6 5 -12z m-522 -7 c-9
-8 -36 -10 -30 -2 2 4 11 8 20 8 8 0 13 -3 10 -6z m540 -121 c-3 -5 -1 -10 6
-10 7 0 10 -3 6 -6 -9 -9 -28 6 -22 17 4 5 8 9 11 9 3 0 2 -4 -1 -10z m-15
-100 c0 -5 -4 -10 -10 -10 -5 0 -10 5 -10 10 0 6 5 10 10 10 6 0 10 -4 10 -10z
m-390 -74 c0 -2 -8 -10 -17 -17 -16 -13 -17 -12 -4 4 13 16 21 21 21 13z"/>
<path d="M2989 3963 c-1 -5 -2 -30 -3 -58 -2 -48 -3 -50 -32 -53 -27 -3 -30
-6 -26 -31 2 -16 -1 -32 -7 -35 -7 -5 -7 -15 -1 -31 9 -23 7 -25 -20 -25 -28
0 -30 -3 -31 -37 -1 -21 -1 -48 -1 -60 1 -13 -3 -23 -9 -23 -11 0 -8 -32 4
-41 5 -3 2 -9 -6 -12 -9 -3 -21 2 -29 11 -11 13 -11 14 1 7 10 -6 12 -4 6 5
-5 9 -4 11 3 6 8 -5 10 -1 5 10 -5 13 -8 14 -11 5 -4 -11 -6 -11 -14 0 -8 11
-9 11 -5 -2 3 -9 0 -22 -6 -29 -9 -10 -9 -11 1 -6 6 4 12 2 12 -3 0 -6 -4 -11
-8 -11 -4 0 -7 -22 -6 -49 1 -56 -3 -66 -28 -68 -10 0 -21 -1 -25 -2 -5 0 -8
-27 -8 -58 0 -55 -1 -58 -25 -58 -20 0 -26 -6 -28 -28 -2 -15 0 -27 5 -28 40
-6 94 -4 105 2 7 5 10 9 6 9 -4 0 -4 10 1 22 5 14 17 23 31 23 19 0 24 6 25
32 2 39 10 50 28 35 8 -7 18 -7 27 -2 9 5 19 5 26 -1 8 -7 14 -6 19 1 5 8 10
8 20 0 9 -8 15 -8 20 0 4 7 12 7 25 0 16 -8 19 -7 17 10 -1 20 -12 27 -20 13
-2 -5 -3 -3 -1 2 2 14 -34 17 -41 4 -4 -5 -11 -6 -17 -3 -6 4 -15 0 -20 -7 -8
-11 -9 -11 -5 2 7 21 -30 20 -43 -1 -7 -11 -10 -11 -10 -2 0 7 -4 11 -8 8 -5
-3 -9 1 -9 7 0 18 338 18 344 0 5 -13 -15 -28 -25 -18 -3 3 0 10 8 15 11 7 11
10 2 10 -7 0 -15 -7 -18 -15 -6 -14 -8 -13 -20 2 -13 17 -14 17 -8 -2 3 -12 2
-16 -3 -9 -10 13 -99 12 -95 -2 2 -5 10 -8 19 -6 10 2 12 -1 7 -10 -5 -9 -2
-8 11 2 21 17 24 17 36 -2 6 -8 9 -9 9 -1 0 6 8 10 18 8 9 -2 17 -4 17 -5 0
-1 20 -3 44 -6 51 -5 53 -6 57 -37 1 -12 3 -24 4 -27 2 -3 3 -16 4 -29 1 -22
5 -25 53 -26 29 -1 56 1 60 4 11 8 12 71 2 71 -5 0 -9 5 -9 11 0 5 4 8 9 5 5
-3 12 1 15 10 3 8 2 13 -2 10 -4 -2 -14 -1 -22 4 -9 6 -18 3 -25 -7 -9 -12
-12 -13 -13 -2 -6 53 -8 65 -14 74 -4 6 -3 17 2 25 11 18 -6 41 -26 33 -17 -6
-18 8 -1 27 10 13 10 13 -3 2 -22 -19 -25 -15 -25 41 -1 49 -2 52 -25 52 -18
0 -26 6 -27 20 -1 11 -3 36 -5 55 -5 47 -15 62 -41 55 -12 -2 -17 -2 -10 1 8
4 8 12 -2 31 -7 14 -11 36 -9 48 2 13 0 27 -6 30 -7 4 -7 13 0 26 8 15 7 21
-4 25 -8 3 -19 3 -25 0 -13 -9 -30 23 -24 45 5 17 -1 19 -56 19 -33 0 -62 -3
-62 -7z m105 -200 c-3 -14 -1 -22 4 -19 5 3 9 -7 9 -22 1 -90 2 -93 22 -80 11
7 17 16 14 22 -3 5 -1 6 5 2 6 -4 9 -13 6 -21 -4 -8 -9 -13 -13 -11 -3 2 -12
-3 -19 -10 -11 -13 -10 -14 12 -10 14 3 26 2 27 -2 0 -4 2 -21 3 -37 1 -17 5
-35 8 -41 4 -5 3 -16 -2 -24 -7 -12 -35 -15 -125 -15 -122 -1 -121 -1 -115 50
2 11 3 29 4 41 0 12 7 21 18 21 22 2 23 -10 3 -27 -8 -7 -13 -16 -10 -20 4 -7
13 -7 44 -1 2 1 -2 7 -8 14 -6 8 -8 17 -4 20 3 4 8 35 10 69 2 34 6 64 8 66 2
3 16 5 30 5 14 0 23 2 21 5 -3 3 2 11 12 19 15 13 15 13 -8 7 -25 -7 -25 -7
-6 15 15 16 21 18 28 9 5 -9 8 -7 8 7 0 16 2 17 9 6 5 -8 7 -25 5 -38z m-179
-83 c3 -6 -1 -7 -9 -4 -18 7 -21 14 -7 14 6 0 13 -4 16 -10z m59 -108 c3 -5
-1 -9 -9 -9 -8 0 -12 4 -9 9 3 4 7 8 9 8 2 0 6 -4 9 -8z m-44 -171 c0 -5 -7
-11 -14 -14 -10 -4 -13 -1 -9 9 6 15 23 19 23 5z m80 1 c0 -13 -12 -22 -22
-16 -10 6 -1 24 13 24 5 0 9 -4 9 -8z"/>
<path d="M3528 3939 c4 -30 -2 -34 -42 -29 -14 1 -18 -3 -13 -19 3 -12 2 -21
-2 -21 -4 0 -8 -45 -8 -100 l0 -100 27 0 c16 0 30 -7 34 -15 3 -8 0 -15 -6
-15 -7 0 -6 -5 2 -15 7 -9 29 -15 51 -15 22 0 39 -4 39 -10 0 -5 -5 -9 -11 -7
-6 1 -13 -6 -14 -16 -2 -9 0 -15 5 -12 5 3 11 -1 13 -7 4 -10 6 -10 6 0 1 8 6
10 14 5 20 -12 37 -12 37 0 0 8 3 7 9 -1 4 -8 11 -13 15 -13 3 1 36 1 72 1 48
0 64 -3 61 -12 -8 -25 13 -48 39 -44 24 5 24 4 22 -59 -2 -61 -3 -63 -25 -54
-15 6 -23 5 -23 -2 0 -7 -17 -10 -45 -7 -25 2 -45 2 -45 1 0 -1 10 -12 23 -23
19 -18 19 -20 3 -14 -13 5 -17 4 -12 -4 4 -7 -1 -10 -14 -7 -11 2 -20 -2 -20
-8 0 -8 -3 -8 -8 -2 -11 16 -34 17 -43 3 -7 -11 -9 -11 -9 0 0 7 -5 10 -12 6
-7 -4 -8 -3 -4 4 4 7 1 12 -6 12 -10 0 -9 3 2 10 22 13 10 19 -50 22 -63 4
-90 15 -69 29 11 7 9 9 -6 9 -15 0 -17 2 -7 9 10 6 7 10 -12 13 -28 6 -33 -1
-13 -21 10 -10 8 -11 -8 -5 -18 7 -19 6 -5 -11 9 -11 10 -16 3 -11 -8 4 -13 1
-13 -8 0 -9 -8 -16 -17 -17 -14 0 -13 -2 4 -9 15 -6 21 -15 16 -25 -4 -12 -1
-16 13 -15 41 5 55 0 52 -17 -2 -10 -7 -22 -13 -26 -6 -5 2 -7 17 -4 15 2 26
1 23 -2 -6 -10 268 -7 284 3 9 6 12 5 7 -2 -3 -6 1 -9 11 -8 10 2 19 9 19 17
1 8 2 22 3 31 1 12 8 15 26 12 30 -5 36 6 38 69 2 34 5 43 16 39 10 -4 12 -1
6 8 -5 8 -4 11 3 6 5 -3 13 0 15 6 4 9 6 10 6 1 1 -6 -4 -15 -9 -18 -8 -5 -7
-12 2 -23 12 -15 11 -16 -5 -3 -9 8 -20 11 -24 7 -3 -3 0 -6 8 -6 12 0 12 -2
0 -9 -9 -6 -6 -8 12 -8 22 0 24 3 23 36 -2 20 1 44 6 54 5 9 5 17 1 16 -20 -3
-34 2 -28 11 3 6 -1 7 -9 4 -9 -3 -13 -11 -9 -17 3 -5 1 -7 -5 -4 -12 8 -11
25 2 46 6 10 5 12 -2 7 -8 -4 -12 1 -13 13 -1 12 -3 26 -4 31 -1 6 -3 14 -4
18 -2 13 -35 11 -43 -2 -5 -7 -8 -6 -8 4 0 11 -12 15 -48 15 -26 -1 -52 3 -59
8 -17 12 -5 36 17 34 10 -1 16 -5 14 -9 -3 -5 -10 -6 -15 -3 -5 4 -9 4 -9 1 0
-3 8 -10 18 -15 14 -7 17 -5 18 14 2 22 -1 23 -80 25 -118 3 -126 4 -126 13 0
4 5 7 12 7 6 0 8 3 4 7 -4 5 -13 0 -21 -10 -11 -15 -13 -11 -20 35 -8 57 -10
116 -4 123 3 2 33 5 67 7 64 3 70 6 50 26 -16 16 -33 15 -20 -1 8 -10 6 -13
-8 -14 -11 -1 -22 2 -25 8 -4 5 2 6 12 2 16 -6 16 -4 -2 18 -15 18 -16 20 -2
10 14 -11 17 -11 17 0 0 10 3 10 12 1 15 -15 31 -16 22 0 -4 7 -3 8 5 4 6 -4
9 -11 6 -16 -3 -5 -1 -11 5 -15 6 -4 8 -10 6 -14 -9 -14 59 -6 74 9 8 9 12 11
8 6 -15 -20 -7 -23 62 -25 l70 -2 0 37 c0 35 -20 63 -45 64 -5 0 -5 -4 2 -8 8
-5 9 -13 3 -22 -7 -12 -12 -12 -22 -2 -6 6 -8 12 -2 12 5 0 10 9 11 21 2 20
-2 20 -181 18 l-182 -2 4 -28z m45 -13 c-6 -10 -13 -12 -23 -6 -13 8 -12 10 4
10 13 0 16 5 11 18 -5 13 -3 14 5 5 8 -7 9 -17 3 -27z m352 -6 c3 -5 1 -10 -4
-10 -6 0 -11 5 -11 10 0 6 2 10 4 10 3 0 8 -4 11 -10z m-159 -32 c10 -12 14
-18 7 -15 -6 4 -15 3 -18 -3 -10 -16 -35 8 -28 26 7 19 17 18 39 -8z m44 17
c0 -7 -30 -13 -34 -7 -3 4 4 9 15 9 10 1 19 0 19 -2z m-309 -38 c-10 -9 -11
-8 -5 6 3 10 9 15 12 12 3 -3 0 -11 -7 -18z m62 -107 c3 -11 1 -23 -4 -26 -5
-3 -9 -2 -8 3 4 24 -2 43 -13 37 -7 -4 -8 -3 -4 5 10 15 22 7 29 -19z m76
-178 c-5 -2 -6 -9 -2 -15 5 -8 2 -8 -9 0 -8 7 -17 10 -20 7 -3 -3 -9 0 -14 7
-4 8 -3 10 5 5 6 -4 14 -1 17 8 5 12 9 13 19 3 7 -7 9 -14 4 -15z m288 -7 c0
-8 -4 -12 -9 -9 -4 3 -8 -1 -9 -8 0 -10 -2 -10 -6 0 -2 6 -10 9 -15 6 -7 -4
-8 -2 -4 5 4 6 12 8 18 5 7 -5 9 -1 5 9 -4 10 -2 14 7 11 7 -3 13 -11 13 -19z
m61 -110 c-2 -1 -13 -8 -25 -14 -19 -10 -22 -9 -17 4 3 8 10 12 15 9 5 -3 9 0
9 6 0 6 5 8 11 5 6 -4 9 -8 7 -10z"/>
<path d="M3736 3891 c-4 -5 -2 -12 3 -15 5 -4 12 -2 15 3 4 5 2 12 -3 15 -5 4
-12 2 -15 -3z"/>
<path d="M3920 3961 c0 -6 4 -13 10 -16 6 -3 7 1 4 9 -7 18 -14 21 -14 7z"/>
<path d="M4122 3613 l3 -358 28 -2 c15 -1 27 2 27 6 0 4 14 6 30 3 23 -3 30 0
30 12 0 9 -5 16 -11 16 -5 0 -7 -4 -4 -10 3 -5 1 -10 -5 -10 -7 0 -9 7 -6 16
3 9 6 18 6 20 0 3 4 3 9 -1 6 -3 9 4 8 15 -1 14 -6 19 -17 15 -9 -3 -7 1 5 10
17 14 18 17 5 25 -8 6 -10 10 -3 10 13 0 12 18 -1 39 -6 9 -5 12 1 8 15 -9 23
29 9 44 -8 9 -8 10 1 5 6 -3 13 0 16 6 3 10 7 10 20 -1 10 -7 17 -9 17 -4 0 5
15 9 34 9 19 -1 32 -4 29 -8 -2 -5 0 -8 6 -8 5 0 11 5 13 12 3 8 6 6 10 -4 5
-12 0 -15 -26 -13 -18 1 -39 5 -46 10 -8 5 -11 4 -6 -3 4 -7 -1 -10 -13 -7
-20 4 -49 -21 -37 -32 3 -3 6 -1 6 4 0 12 25 12 36 0 4 -3 15 -2 25 4 14 7 19
6 19 -3 0 -10 3 -9 9 1 8 12 12 12 24 2 11 -9 17 -9 22 0 6 8 10 7 16 -2 6
-10 8 -8 6 8 -2 12 -7 26 -12 30 -4 5 -5 2 0 -6 5 -9 4 -12 -3 -7 -18 11 -14
25 6 25 64 -1 119 5 130 13 8 7 12 7 12 0 0 -23 35 -4 38 21 2 15 7 27 11 27
5 0 8 8 8 18 0 34 3 43 16 41 34 -4 35 1 36 121 0 73 -4 120 -10 120 -6 0 -7
5 -4 10 3 6 1 10 -4 10 -6 0 -11 -4 -11 -10 0 -5 -7 -10 -16 -10 -12 0 -15 7
-12 25 4 20 -1 28 -24 39 -15 8 -26 10 -23 5 4 -5 1 -9 -4 -9 -6 0 -11 14 -11
30 l0 30 -210 0 -210 0 2 -357z m293 282 c0 -6 4 -16 9 -24 6 -10 5 -12 -2 -7
-7 4 -12 3 -12 -2 0 -5 13 -9 29 -8 17 0 27 5 24 11 -3 5 0 4 8 -2 7 -7 26
-13 41 -13 25 0 28 -4 29 -32 2 -50 -1 -202 -4 -205 -2 -1 -22 -4 -45 -5 -30
-2 -39 -6 -30 -13 7 -5 14 -17 15 -25 2 -13 -17 -15 -117 -16 -116 -1 -120 -1
-121 20 0 11 -2 80 -2 152 l-2 130 82 -1 c45 -1 80 2 77 7 -3 4 0 8 6 8 6 0 8
5 4 11 -4 8 -9 7 -15 -2 -7 -11 -9 -11 -9 1 0 13 -1 13 -10 0 -9 -13 -10 -13
-10 0 0 13 -1 13 -10 0 -9 -13 -10 -13 -10 0 0 13 -1 13 -10 0 -9 -13 -10 -13
-10 0 0 13 -1 13 -10 0 -9 -13 -10 -13 -10 0 0 13 -1 13 -10 0 -9 -13 -10 -13
-10 0 0 13 -1 13 -10 0 -9 -13 -10 -13 -10 0 0 12 -2 12 -9 1 -6 -9 -11 -10
-15 -2 -4 6 -2 11 4 11 6 0 9 4 6 8 -2 4 35 7 82 7 50 0 87 -4 87 -10z m33
-20 c-3 -3 -9 2 -12 12 -6 14 -5 15 5 6 7 -7 10 -15 7 -18z m-225 -45 c3 -11
1 -18 -4 -14 -5 3 -9 12 -9 20 0 20 7 17 13 -6z m-13 -24 c0 -2 -7 -7 -16 -10
-8 -3 -12 -2 -9 4 6 10 25 14 25 6z m-3 -47 c0 -21 -3 -26 -9 -16 -4 9 -5 22
-2 31 9 23 11 20 11 -15z m356 -14 c-3 -9 -8 -14 -10 -11 -3 3 -2 9 2 15 9 16
15 13 8 -4z m31 -3 c3 -5 -1 -9 -9 -9 -8 0 -12 4 -9 9 3 4 7 8 9 8 2 0 6 -4 9
-8z m-373 -29 c-12 -20 -14 -14 -5 12 4 9 9 14 11 11 3 -2 0 -13 -6 -23z m340
-26 c-10 -9 -11 -8 -5 6 3 10 9 15 12 12 3 -3 0 -11 -7 -18z m-336 -7 c3 -5 1
-10 -4 -10 -6 0 -11 5 -11 10 0 6 2 10 4 10 3 0 8 -4 11 -10z m-6 -23 c-2 -1
-13 -9 -24 -17 -19 -14 -19 -14 -6 3 7 9 18 17 24 17 6 0 8 -1 6 -3z m0 -67
c11 -24 11 -24 -3 -6 -9 11 -16 24 -16 30 0 12 5 7 19 -24z m346 -70 l20 -25
-22 19 c-13 11 -23 24 -23 29 0 6 1 8 3 6 1 -2 11 -15 22 -29z m-235 -65 c0
-7 -30 -13 -34 -7 -3 4 4 9 15 9 10 1 19 0 19 -2z m70 -1 c0 -8 -19 -13 -24
-6 -3 5 1 9 9 9 8 0 15 -2 15 -3z m-198 -110 c-6 -12 -9 -7 -9 16 0 23 3 28 9
16 5 -9 5 -23 0 -32z m0 -41 c-6 -3 -9 -10 -6 -15 4 -7 2 -8 -5 -4 -9 6 -9 11
0 22 6 8 15 12 18 8 3 -4 0 -9 -7 -11z"/>
<path d="M4573 3955 c0 -8 4 -12 9 -9 5 3 6 10 3 15 -9 13 -12 11 -12 -6z"/>
<path d="M4957 3963 c-2 -5 -3 -18 -2 -30 1 -20 -3 -23 -33 -23 -29 0 -32 -2
-23 -14 7 -8 8 -17 3 -20 -5 -3 -8 -23 -6 -45 2 -36 0 -40 -24 -43 -19 -2 -27
-9 -28 -23 -1 -11 -3 -24 -4 -30 -2 -5 -3 -23 -4 -40 -1 -24 -5 -30 -23 -30
-12 0 -25 -3 -29 -7 -3 -4 3 -6 15 -3 11 2 21 -1 21 -6 0 -6 4 -8 9 -5 5 4 7
-3 4 -13 -3 -13 -12 -18 -29 -16 -25 2 -25 4 -28 -77 -1 -44 -10 -55 -31 -38
-16 13 -17 11 -28 -38 -3 -13 -1 -20 5 -16 6 4 6 -1 -1 -13 -6 -11 -8 -23 -4
-26 3 -3 2 -14 -2 -24 -5 -10 -7 -21 -7 -25 1 -5 -2 -8 -8 -8 -5 0 -10 8 -11
18 0 10 -3 12 -6 4 -2 -6 -9 -9 -15 -6 -5 4 -9 -4 -8 -17 1 -13 1 -26 0 -29
-7 -19 -5 -52 4 -59 6 -4 34 -7 61 -7 42 1 50 4 52 21 0 11 2 37 4 57 3 41 23
57 38 30 9 -15 10 -15 11 -1 0 20 27 33 36 18 4 -7 10 -6 19 1 10 8 15 8 20 0
5 -8 10 -9 18 -1 6 6 16 7 28 1 14 -8 17 -6 16 10 -1 20 -12 27 -20 13 -2 -5
-3 -3 -1 2 2 14 -34 17 -41 4 -4 -5 -11 -6 -17 -3 -6 4 -14 0 -19 -7 -7 -12
-9 -11 -9 1 0 13 -1 13 -10 0 -9 -14 -9 -4 -1 39 1 2 7 -1 14 -6 6 -5 83 -9
170 -8 86 1 152 -2 146 -6 -7 -4 -21 -6 -31 -4 -11 2 -22 -3 -25 -11 -5 -13
-7 -13 -14 -2 -7 10 -9 10 -9 -1 0 -11 -4 -9 -15 5 -15 19 -15 19 -9 -1 3 -12
2 -16 -3 -9 -10 13 -100 12 -93 -2 3 -5 11 -7 19 -6 8 2 10 -1 5 -10 -5 -9 -2
-8 11 2 21 17 24 17 36 -2 6 -8 9 -9 9 -1 0 11 16 12 35 2 9 -5 31 -5 38 1 9
7 37 7 37 -1 0 -5 6 -8 13 -7 7 2 12 -7 11 -24 -1 -28 25 -46 46 -33 6 4 10
-6 10 -24 0 -17 6 -32 13 -33 36 -4 43 -4 52 3 6 4 17 4 24 -1 25 -15 40 -1
31 30 -4 16 -5 32 -2 36 4 3 -3 1 -15 -7 -30 -18 -35 -10 -37 55 -1 56 -5 61
-43 57 -6 -1 -10 11 -9 29 1 16 -1 30 -5 30 -5 0 -6 14 -4 30 2 17 -1 30 -6
30 -6 0 -7 5 -4 10 9 14 -8 13 -23 -2 -7 -7 -12 -10 -13 -7 -4 17 -10 69 -12
97 -1 27 -5 32 -19 29 -10 -3 -16 -1 -12 4 3 5 11 9 19 9 11 0 12 6 3 32 -10
28 -12 29 -18 12 -4 -10 -6 -22 -4 -26 3 -4 -1 -10 -7 -14 -8 -4 -9 -3 -5 4 4
7 1 12 -6 12 -10 0 -10 2 1 9 10 7 10 10 1 13 -11 3 -15 26 -19 110 -1 11 -7
15 -21 11 -24 -6 -31 10 -33 72 l-2 45 -57 0 c-31 0 -59 -3 -61 -7z m56 -176
c13 3 18 1 12 -4 -5 -4 -10 -17 -10 -28 0 -16 7 -20 30 -20 l30 1 0 -63 c0
-35 3 -63 7 -63 5 0 6 -15 3 -32 -4 -24 -3 -29 5 -18 9 13 10 13 10 0 0 -13 1
-13 10 0 14 23 24 2 21 -45 -1 -20 -7 -21 -113 -19 -139 2 -131 0 -123 25 6
16 4 20 -6 13 -11 -6 -12 -5 -2 7 7 8 12 24 12 34 1 76 17 116 36 86 3 -6 0
-9 -7 -8 -7 2 -9 2 -5 -1 4 -2 3 -10 -4 -18 -6 -8 -10 -14 -8 -15 31 -6 38 -5
43 6 3 10 0 12 -12 8 -15 -6 -15 -5 -3 10 7 10 15 44 17 77 3 57 25 107 32 75
2 -8 12 -11 25 -8z m-143 -11 c0 -3 -4 -8 -10 -11 -5 -3 -10 -1 -10 4 0 6 5
11 10 11 6 0 10 -2 10 -4z m3 -31 c-3 -9 -8 -14 -10 -11 -3 3 -2 9 2 15 9 16
15 13 8 -4z m247 -145 c-13 -9 -13 -10 0 -10 13 0 13 -2 0 -9 -8 -6 -17 -8
-22 -5 -12 8 3 34 21 34 14 0 14 -2 1 -10z m-190 -198 c0 -13 -12 -22 -22 -16
-10 6 -1 24 13 24 5 0 9 -4 9 -8z m201 -15 c-10 -9 -11 -8 -5 6 3 10 9 15 12
12 3 -3 0 -11 -7 -18z m59 13 c0 -5 -4 -10 -10 -10 -5 0 -10 5 -10 10 0 6 5
10 10 10 6 0 10 -4 10 -10z"/>
<path d="M5434 3615 c-1 -195 2 -356 5 -356 34 -8 53 -3 72 17 12 13 19 27 15
31 -4 4 -11 1 -16 -7 -7 -11 -9 -10 -7 7 1 17 5 20 18 12 10 -5 17 -18 16 -28
0 -11 -4 -18 -8 -15 -4 2 -10 0 -14 -6 -7 -11 5 -13 27 -5 9 4 12 26 11 83 -3
88 2 108 20 95 11 -8 31 -9 50 -3 20 7 33 5 46 -4 11 -8 13 -8 7 2 -4 6 -3 12
3 12 5 0 12 -4 15 -8 8 -13 61 -8 61 5 0 6 4 15 8 20 5 4 8 4 7 -2 -5 -22 1
-35 14 -35 9 0 12 -10 10 -30 -2 -16 0 -29 4 -29 39 6 52 -2 52 -34 0 -31 2
-33 30 -29 27 4 29 2 27 -24 -2 -25 1 -28 31 -30 17 -1 33 3 33 7 1 5 2 14 3
21 1 13 34 20 41 8 3 -5 0 -12 -6 -16 -8 -5 -9 -3 -4 7 8 12 6 12 -8 0 -9 -7
-17 -19 -17 -25 0 -8 2 -8 8 0 4 6 15 10 25 8 9 -1 17 3 17 9 0 17 -15 38 -26
36 -24 -4 -34 3 -34 25 0 36 -11 61 -20 45 -12 -18 -40 -3 -40 21 0 13 4 19
11 14 6 -3 5 4 -3 17 -8 13 -13 44 -13 69 2 43 3 45 33 48 28 3 32 7 33 33 1
16 2 37 2 47 1 9 6 20 11 24 13 9 37 -2 30 -13 -3 -5 -10 -7 -15 -4 -5 4 -9 1
-9 -4 0 -13 10 -14 30 -1 17 11 4 30 -25 34 -10 1 -19 10 -21 19 -2 15 0 15
19 2 24 -17 37 -19 37 -7 0 5 -12 14 -26 20 -14 7 -23 16 -20 21 4 5 0 12 -6
15 -7 3 -4 4 6 3 10 -1 21 3 23 10 3 8 -3 11 -16 8 -15 -3 -18 0 -14 13 5 11
8 12 11 4 3 -10 7 -10 20 0 10 8 13 9 9 1 -4 -6 -3 -14 3 -18 5 -3 10 3 10 14
0 17 -6 21 -30 21 -17 0 -29 3 -29 8 4 26 -2 82 -9 78 -5 -3 -9 1 -9 9 0 8 4
12 9 9 4 -3 8 0 8 5 0 6 -16 11 -35 11 -34 0 -35 1 -30 29 4 25 2 30 -14 28
-11 0 -18 -7 -16 -17 1 -8 9 -14 16 -12 11 3 11 1 2 -9 -7 -7 -20 -14 -28 -15
-13 -2 -14 1 -4 12 8 10 8 14 1 14 -6 0 -9 7 -6 15 5 13 -22 15 -208 15 l-214
0 0 -355z m184 282 c7 -5 12 -4 12 2 0 12 27 10 48 -2 7 -5 12 -4 12 2 0 13
27 10 57 -7 18 -10 24 -9 32 5 6 10 11 13 11 7 0 -6 -10 -19 -22 -30 -12 -10
-18 -13 -13 -5 6 11 4 13 -7 8 -9 -3 -21 0 -27 6 -8 8 -11 7 -11 -3 0 -13 -2
-13 -10 0 -9 13 -10 13 -10 0 0 -13 -1 -13 -10 0 -8 13 -10 13 -10 1 0 -11 -4
-9 -15 5 -15 19 -15 19 -9 -1 5 -16 4 -17 -5 -5 -9 13 -11 13 -11 0 0 -13 -1
-13 -10 0 -8 13 -10 13 -10 1 0 -11 -4 -9 -15 5 -15 19 -15 19 -9 -1 4 -14 3
-16 -4 -7 -7 11 -10 11 -15 -2 -7 -18 8 -31 18 -16 5 8 11 7 22 -1 11 -10 16
-10 23 0 4 8 10 9 13 4 7 -12 46 -11 66 1 7 5 16 5 20 -1 3 -5 26 -9 51 -10
25 -1 53 -2 62 -2 12 -1 16 -9 14 -34 -3 -31 -1 -33 26 -29 l29 4 -2 -81 c-2
-60 -7 -85 -18 -94 -14 -10 -14 -10 -3 4 15 20 6 49 -15 49 -13 0 -13 -3 -3
-15 18 -21 -4 -45 -42 -45 -32 0 -50 -27 -27 -41 18 -11 16 -11 -119 -14 -100
-3 -115 -1 -135 17 -12 11 -16 17 -10 13 15 -7 16 69 2 97 -6 10 -5 19 2 23 6
4 9 37 8 80 -1 39 1 77 5 84 4 6 4 16 0 23 -4 7 -3 8 4 4 7 -4 12 -2 12 3 0
12 27 10 48 -2z m319 -33 c-3 -3 -12 -4 -19 -1 -8 3 -5 6 6 6 11 1 17 -2 13
-5z m-411 -19 c-1 -8 -5 -17 -8 -21 -5 -4 -4 16 1 34 3 9 9 -1 7 -13z m0 -54
c-4 -5 -1 -11 6 -13 7 -3 5 -7 -6 -11 -10 -4 -15 -3 -11 3 3 6 0 10 -7 10 -9
0 -9 3 2 10 19 12 23 12 16 1z m1 -66 c0 -17 -13 -20 -21 -6 -4 5 0 12 6 14 7
3 13 6 14 6 0 1 1 -6 1 -14z m-2 -115 c-3 -5 -12 -10 -18 -10 -7 0 -6 4 3 10
19 12 23 12 15 0z m320 -30 c3 -5 1 -10 -4 -10 -6 0 -11 5 -11 10 0 6 2 10 4
10 3 0 8 -4 11 -10z m51 -116 c0 -14 -4 -27 -9 -31 -6 -4 -7 -1 -2 7 6 9 4 12
-6 8 -18 -7 -24 33 -6 44 15 9 21 2 23 -28z m-250 11 c-2 -6 2 -12 9 -12 7 0
11 6 8 14 -3 7 0 13 7 13 6 0 8 -4 5 -10 -3 -5 -1 -10 4 -10 6 0 11 5 11 12 0
6 6 4 13 -7 8 -10 19 -15 25 -11 7 4 12 3 12 -2 0 -13 -38 -23 -45 -12 -4 7
-70 7 -70 0 0 -1 -10 -3 -22 -4 -13 -2 -31 6 -40 17 -10 11 -12 17 -5 13 6 -4
12 -3 12 1 0 5 18 9 40 9 27 0 39 -4 36 -11z m84 11 c0 -3 -4 -8 -10 -11 -5
-3 -10 -1 -10 4 0 6 5 11 10 11 6 0 10 -2 10 -4z m-199 -43 c13 -16 12 -17 -3
-4 -10 7 -18 15 -18 17 0 8 8 3 21 -13z m0 -46 c-10 -9 -11 -8 -5 6 3 10 9 15
12 12 3 -3 0 -11 -7 -18z m-1 -27 c-8 -5 -19 -10 -25 -10 -5 0 -3 5 5 10 8 5
20 10 25 10 6 0 3 -5 -5 -10z"/>
<path d="M5853 3635 c0 -8 4 -12 9 -9 4 3 8 9 8 15 0 5 -4 9 -8 9 -5 0 -9 -7
-9 -15z"/>
<path d="M5573 3468 c-5 -9 -5 -9 25 -12 12 -2 27 2 32 9 6 8 0 11 -21 10 -17
0 -33 -3 -36 -7z"/>
<path d="M6094 3860 c0 -68 3 -107 9 -103 6 4 7 1 1 -8 -5 -8 -9 -72 -9 -144
-1 -130 -1 -130 25 -143 l25 -13 -26 5 c-23 5 -26 3 -25 -27 1 -17 5 -35 11
-39 6 -5 5 -8 -2 -8 -7 0 -13 -7 -13 -15 0 -8 5 -15 10 -15 6 0 10 -5 10 -11
0 -5 -5 -7 -10 -4 -8 5 -9 -43 -1 -84 1 -3 8 4 17 15 8 10 12 13 8 5 -5 -11
-3 -13 9 -8 10 3 17 3 17 -1 0 -5 14 -8 30 -8 l30 0 0 358 0 358 -36 0 c-27 0
-35 -4 -31 -14 3 -8 -1 -17 -9 -20 -11 -4 -12 -10 -5 -24 7 -14 6 -19 -4 -19
-8 0 -12 4 -9 9 3 5 0 16 -7 24 -10 12 -10 15 1 12 8 -2 16 5 18 15 2 9 -2 17
-8 17 -6 0 -8 -5 -4 -12 6 -10 5 -10 -7 -1 -12 10 -14 -4 -15 -97z m52 -2 c5
-7 3 -8 -6 -3 -9 5 -10 1 -6 -16 6 -20 5 -21 -4 -6 -6 9 -8 22 -5 27 8 13 12
13 21 -2z m-34 -80 c-8 -8 -9 -4 -5 13 4 13 8 18 11 10 2 -7 -1 -18 -6 -23z
m33 2 c3 -5 1 -10 -4 -10 -6 0 -11 5 -11 10 0 6 2 10 4 10 3 0 8 -4 11 -10z
m-5 -54 c0 -3 -4 -8 -10 -11 -5 -3 -10 -1 -10 4 0 6 5 11 10 11 6 0 10 -2 10
-4z m-17 -46 c-3 -11 -10 -23 -16 -27 -5 -3 -8 -2 -5 3 3 5 8 17 11 27 9 24
16 22 10 -3z m23 -62 c5 -7 3 -8 -6 -3 -9 5 -10 1 -6 -16 6 -20 5 -21 -4 -6
-6 9 -8 22 -5 27 8 13 12 13 21 -2z m-6 -84 c0 -2 -7 -4 -15 -4 -8 0 -15 4
-15 10 0 5 7 7 15 4 8 -4 15 -8 15 -10z m-10 -28 c0 -3 -4 -8 -10 -11 -5 -3
-10 -1 -10 4 0 6 5 11 10 11 6 0 10 -2 10 -4z m15 -26 c3 -5 1 -10 -4 -10 -6
0 -11 5 -11 10 0 6 2 10 4 10 3 0 8 -4 11 -10z m-22 -55 c-3 -9 -8 -14 -10
-11 -3 3 -2 9 2 15 9 16 15 13 8 -4z m23 -27 c5 -7 3 -8 -6 -3 -10 6 -12 4 -6
-11 5 -14 4 -16 -5 -7 -6 6 -8 16 -5 22 9 14 13 14 22 -1z m-21 -78 c-3 -5
-12 -10 -18 -10 -7 0 -6 4 3 10 19 12 23 12 15 0z m18 -22 c3 -8 -4 -13 -19
-13 -22 0 -23 1 -7 13 9 6 18 12 19 12 1 0 4 -6 7 -12z"/>
<path d="M2956 3887 c3 -10 9 -15 12 -12 3 3 0 11 -7 18 -10 9 -11 8 -5 -6z"/>
<path d="M435 3880 c3 -5 8 -10 11 -10 2 0 4 5 4 10 0 6 -5 10 -11 10 -5 0 -7
-4 -4 -10z"/>
<path d="M2120 3880 c-9 -6 -10 -10 -3 -10 6 0 15 5 18 10 8 12 4 12 -15 0z"/>
<path d="M2515 3820 c-3 -5 -1 -10 4 -10 6 0 11 5 11 10 0 6 -2 10 -4 10 -3 0
-8 -4 -11 -10z"/>
<path d="M2655 3811 c-3 -5 -2 -12 3 -15 5 -3 9 1 9 9 0 17 -3 19 -12 6z"/>
<path d="M2236 3798 c3 -5 10 -6 15 -3 13 9 11 12 -6 12 -8 0 -12 -4 -9 -9z"/>
<path d="M3186 3775 c4 -8 7 -15 9 -15 1 0 8 7 15 15 10 13 9 15 -8 15 -15 0
-20 -5 -16 -15z"/>
<path d="M3210 3759 c0 -5 5 -7 10 -4 6 3 10 8 10 11 0 2 -4 4 -10 4 -5 0 -10
-5 -10 -11z"/>
<path d="M6001 3726 c-9 -11 -8 -15 5 -20 22 -9 23 -8 21 14 -2 23 -10 25 -26
6z"/>
<path d="M3620 3720 c0 -5 5 -10 11 -10 5 0 7 5 4 10 -3 6 -8 10 -11 10 -2 0
-4 -4 -4 -10z"/>
<path d="M3266 3657 c4 -12 2 -17 -6 -15 -7 2 -15 -4 -17 -12 -4 -13 -3 -13 6
0 6 8 11 11 11 6 0 -6 5 -5 12 2 9 9 9 15 -1 25 -10 10 -11 8 -5 -6z"/>
<path d="M4780 3635 c0 -7 30 -13 34 -7 3 4 -4 9 -15 9 -10 1 -19 0 -19 -2z"/>
<path d="M2673 3595 c0 -14 2 -25 6 -25 10 0 11 39 2 45 -5 2 -8 -7 -8 -20z"/>
<path d="M5214 3586 c0 -20 3 -22 18 -12 10 6 18 17 18 25 0 11 -4 9 -15 -5
-13 -16 -14 -16 -9 -1 3 9 2 17 -3 17 -5 0 -9 -11 -9 -24z"/>
<path d="M4617 3592 c-8 -17 0 -35 16 -38 9 -1 15 2 11 7 -3 5 0 9 6 9 7 0 10
5 8 12 -4 12 -36 20 -41 10z m33 -7 c0 -2 -6 -8 -13 -14 -10 -8 -14 -7 -14 2
0 8 6 14 14 14 7 0 13 -1 13 -2z"/>
<path d="M3331 3524 c0 -11 3 -14 6 -6 3 7 2 16 -1 19 -3 4 -6 -2 -5 -13z"/>
<path d="M907 3495 c3 -8 9 -12 14 -9 12 7 11 11 -5 17 -10 4 -13 1 -9 -8z"/>
<path d="M5275 3460 c3 -5 8 -10 11 -10 2 0 4 5 4 10 0 6 -5 10 -11 10 -5 0
-7 -4 -4 -10z"/>
<path d="M740 3446 c7 -7 13 -7 20 0 6 6 3 10 -10 10 -13 0 -16 -4 -10 -10z"/>
<path d="M4450 3456 c0 -2 8 -10 18 -17 15 -13 16 -12 3 4 -13 16 -21 21 -21
13z"/>
<path d="M2349 3378 c0 -2 -2 -11 -4 -20 -4 -20 20 -44 29 -29 4 5 15 8 26 6
19 -4 48 21 36 32 -3 3 -6 1 -6 -6 0 -7 -5 -9 -10 -6 -6 4 -7 12 -4 18 5 9 4
9 -6 0 -7 -6 -19 -9 -26 -6 -8 3 -14 0 -14 -7 0 -6 -5 -8 -10 -5 -6 4 -8 11
-5 16 4 5 4 9 1 9 -3 0 -6 -1 -7 -2z m67 -30 c3 -4 -2 -5 -13 -4 -10 2 -23 -1
-30 -6 -7 -6 -14 -5 -19 3 -4 7 -3 9 4 5 6 -3 13 -2 16 3 6 10 31 9 42 -1z"/>
<path d="M3660 3360 c0 -5 -1 -13 -2 -17 -4 -9 82 -11 88 -2 2 4 -1 11 -8 16
-20 12 -48 14 -48 3 0 -6 -5 -10 -11 -10 -5 0 -7 5 -4 10 3 6 1 10 -4 10 -6 0
-11 -4 -11 -10z m74 -11 c3 -3 -5 -5 -19 -5 -13 0 -22 3 -19 7 4 8 30 6 38 -2z"/>
<path d="M3234 3349 c-5 -8 -3 -9 6 -4 10 6 12 4 7 -8 -3 -9 -1 -19 5 -23 6
-4 8 -3 4 4 -3 5 -1 12 5 14 7 2 6 8 -4 16 -12 10 -17 10 -23 1z"/>
<path d="M4796 3342 c-3 -5 1 -9 9 -9 8 0 12 4 9 9 -3 4 -7 8 -9 8 -2 0 -6 -4
-9 -8z"/>
<path d="M5864 3285 c-16 -13 -16 -14 -1 -9 11 4 16 2 14 -7 -2 -8 -2 -11 0
-7 3 4 4 10 3 14 -1 4 4 11 12 15 7 5 8 9 2 9 -5 0 -19 -7 -30 -15z"/>
<path d="M1150 3045 c0 -7 30 -13 34 -7 3 4 -4 9 -15 9 -10 1 -19 0 -19 -2z"/>
</g>
</svg>
